<svg width="36" height="36" viewBox="0 0 36 36" fill="none" xmlns="http://www.w3.org/2000/svg">
<path d="M31.3572 16.7219L19.2047 4.56635C18.8683 4.23023 18.4122 4.04143 17.9367 4.04143C17.4611 4.04143 17.005 4.23023 16.6686 4.56635L14.1418 7.0913L17.3435 10.293C19.0251 9.725 20.6173 11.3352 20.04 13.0075L23.1261 16.0936C25.2533 15.3603 26.9281 18.0201 25.3304 19.6166C23.6841 21.2628 20.9672 19.4383 21.8502 17.2961L18.9698 14.4194V21.9918C20.5421 22.7711 20.3532 24.5926 19.5341 25.4098C19.1339 25.8097 18.5913 26.0344 18.0255 26.0344C17.4598 26.0344 16.9171 25.8097 16.517 25.4098C15.4251 24.316 15.829 22.4946 17.2161 21.9297V14.2858C15.9235 13.757 15.6873 12.3755 16.0577 11.4893L12.9014 8.32923L4.56648 16.6654C4.23021 17.0017 4.0413 17.4578 4.0413 17.9334C4.0413 18.409 4.23021 18.8652 4.56648 19.2015L16.7227 31.3571C17.059 31.6931 17.515 31.8819 17.9904 31.8819C18.4659 31.8819 18.9219 31.6931 19.2582 31.3571L31.3572 19.258C31.6935 18.9217 31.8824 18.4656 31.8824 17.99C31.8824 17.5144 31.6935 17.0582 31.3572 16.7219Z" fill="#DE4C36"/>
</svg>
