<svg width="18" height="26" viewBox="0 0 18 26" fill="none" xmlns="http://www.w3.org/2000/svg">
<path d="M3.04179 25.9992C2.55473 26.0104 2.07341 25.8922 1.6469 25.6568C0.151768 24.7943 -0.366097 22.3073 0.261397 19.0028C0.953255 15.8404 2.15203 12.8107 3.81128 10.031C5.36773 7.24236 7.36031 4.7207 9.71348 2.56163C10.7504 1.61642 11.9466 0.862425 13.2467 0.334597C13.7169 0.114231 14.2298 0 14.7491 0C15.2684 0 15.7813 0.114231 16.2515 0.334597C17.8062 1.23042 18.3209 3.97427 17.5953 7.49596C16.882 10.4868 15.7144 13.3506 14.1331 15.9875C12.6314 18.7432 10.7016 21.2429 8.41569 23.3932C7.3411 24.3754 6.094 25.1503 4.73738 25.6787C4.19427 25.8803 3.62101 25.9886 3.04179 25.9992ZM4.89295 10.6512C3.31022 13.3129 2.16128 16.2096 1.48924 19.2325C0.911861 22.276 1.46627 24.1063 2.2723 24.5719C3.10757 25.0554 5.13518 24.597 7.59713 22.4462C9.77929 20.3862 11.6213 17.9934 13.0546 15.3569C14.5694 12.8359 15.6895 10.098 16.3758 7.23808C17.0586 3.92311 16.4687 1.89341 15.6313 1.41105C15.3175 1.2908 14.9821 1.23697 14.6464 1.25296C14.3107 1.26896 13.982 1.35443 13.681 1.50397C12.5238 1.98148 11.46 2.65938 10.5383 3.50652C8.29005 5.57463 6.38671 7.98871 4.90026 10.6574L4.89295 10.6512Z" fill="#00D8FF"/>
</svg>
