<svg width="32" height="37" viewBox="0 0 32 37" fill="none" xmlns="http://www.w3.org/2000/svg">
<g clip-path="url(#clip0_2028_210)">
<path d="M5.02102 16.175C3.93822 16.6832 1.07222 18.9704 0.520171 19.6481C-0.0530297 20.3259 -0.222846 19.2669 0.371655 17.5092C0.838503 16.0903 2.02765 14.1633 4.02328 12.5114C5.19083 11.5585 7.7598 10.182 9.33074 9.37715C9.64937 9.20776 13.7681 7.47125 17.441 6.60292C17.7595 6.51823 17.0588 7.13233 16.9528 7.47125C16.4007 9.08072 5.38195 15.9844 5.38195 15.9844L5.02102 16.175ZM20.5406 35.5939C20.7317 36.7375 20.5619 36.8222 19.3731 36.9705C18.1841 37.1188 17.3137 36.6739 16.9953 36.3775C16.6766 36.0809 16.6131 35.4246 16.9316 34.8316C17.1227 34.4504 17.3138 34.3233 17.4199 33.8575C17.5261 33.4128 17.6111 33.3069 17.6959 33.1375C17.7807 32.9892 17.8021 32.8409 17.8233 31.8033C17.8446 30.7656 17.8233 28.8174 17.9295 27.9915C18.0357 27.1446 21.7086 28.3727 21.7086 28.3727C21.7086 28.3727 20.8381 30.5326 20.6045 31.062C20.3709 31.5916 20.3922 32.6079 20.3922 32.8198C20.3922 33.0317 20.3073 33.455 20.2436 33.4762C20.1798 33.4973 20.456 34.048 20.3285 34.3657C20.2434 34.6622 20.5195 35.4246 20.5406 35.5939ZM21.942 3.21373C21.8145 2.40914 21.942 0.82063 22.1117 0.566549C22.6426 -0.153491 25.4448 -0.23804 26.0395 0.608896C26.2942 0.990018 26.2731 1.87959 26.2306 2.45134C26.1882 3.0231 26.0395 4.2513 26.0183 4.65396C25.9972 4.95024 22.9188 5.4162 22.2394 4.61147C22.0481 4.39973 21.942 3.21373 21.942 3.21373ZM28.1838 33.5387C29.4788 34.4706 30.4767 34.64 31.1348 34.9788C31.7929 35.3177 31.6231 35.9743 30.519 36.1648C29.6274 36.3342 28.2261 35.9954 27.2922 35.9954C26.3581 35.9954 24.2773 36.1013 23.7252 35.7201C23.0884 35.2755 23.3643 34.4494 23.3643 34.4494C23.5343 33.9837 23.9588 32.9458 23.8315 32.0987C23.7039 31.2518 23.5341 30.7859 23.2157 30.0022C22.8973 29.2189 22.6638 27.2917 22.9611 27.1856C23.2583 27.0796 23.1732 27.1856 23.5554 27.2703C23.9377 27.3549 24.3622 27.4821 25.1901 27.4821C26.0181 27.4821 26.931 27.3549 27.2495 27.2916C27.568 27.228 27.8227 27.1644 27.7165 27.821C27.6104 28.4774 27.292 29.7056 27.2707 30.6587C27.2495 31.6115 27.2495 32.7128 27.3133 32.9035C27.3769 33.094 27.844 33.3059 28.1836 33.5387H28.1838Z" fill="#010101"/>
<path d="M23.6401 5.33243C21.3049 7.34426 16.7826 7.89491 10.074 10.4785C8.35425 11.135 3.7685 13.1046 2.66455 15.1586C6.37992 13.0197 7.7599 15.9634 8.05707 18.9917C8.3331 21.8293 9.75552 23.3119 13.4071 23.2271C17.165 23.1425 18.3114 25.3236 19.3517 27.8861C21.3686 18.081 24.5957 16.1752 26.6761 14.5023C31.0922 10.9234 25.6572 4.61253 23.6403 5.33257L23.6401 5.33243Z" fill="#8AC640"/>
<path d="M23.6402 5.33242C18.0354 7.28066 12.4941 7.76772 5.97617 11.7703C4.42639 12.7233 1.157 14.8831 0.519897 19.0128C2.89761 16.3867 8.39634 13.0832 15.1267 10.9867C18.5236 9.92785 21.0076 9.22891 24.0223 8.0643C23.8102 6.70876 23.8102 6.1795 23.6402 5.33242Z" fill="#8AC640"/>
<path d="M30.795 16.9369C30.795 16.9369 30.3918 18.3135 29.585 18.7582C29.585 18.7582 28.9905 18.9701 27.8017 18.3137C27.4619 18.123 27.2072 17.4667 27.2283 17.2547C27.2496 16.7464 27.5681 16.5136 27.5681 16.5136C27.5681 16.5136 27.9079 15.9417 28.3111 15.9629C28.7145 15.984 29.3939 16.0476 29.6063 15.857C29.7973 15.6452 30.8375 16.2379 30.795 16.9369ZM22.133 3.61657C22.133 3.61657 22.0482 4.69678 21.8995 5.37433C21.8782 5.50151 21.2414 5.5651 20.7743 5.75559C21.666 8.29683 27.0373 8.27559 27.7379 7.02629C27.3983 6.79331 26.719 6.43329 26.4005 6.30625C26.082 6.17906 26.1032 6.20031 26.082 5.60745C26.0609 5.01431 26.0183 3.91329 25.9758 3.61672C25.9334 3.32014 22.6427 3.32014 22.1331 3.61672L22.133 3.61657Z" fill="#010101"/>
<path d="M22.3448 3.61724C22.3448 3.61724 22.3448 4.23148 22.2811 4.82434C22.2601 5.09966 22.2388 5.26905 22.1963 5.48078C22.1751 5.60797 22.9182 6.11613 23.1304 7.23854C24.1495 9.50446 26.5062 8.38219 27.4828 7.30213C27.1431 7.06915 26.5911 6.75148 25.9543 6.4974C25.6358 6.37021 25.7845 6.09503 25.7633 5.50203C25.742 4.90918 25.6571 4.04085 25.6146 3.72317C25.572 3.40565 22.8544 3.32095 22.345 3.61738L22.3448 3.61724Z" fill="#F0EFEF"/>
<path d="M22.1332 3.61734C22.1332 3.61734 22.1121 3.99861 22.0485 4.44332C22.3243 4.7185 22.6853 5.09977 22.9613 5.33275C23.1526 5.50228 23.6194 5.48103 24.0441 5.48103C24.4263 5.48103 24.766 5.52338 24.9146 5.43869C25.2544 5.2693 25.7425 4.84583 26.0187 4.52816C25.9974 4.14689 25.9763 3.78687 25.955 3.61734C25.9335 3.32091 22.6425 3.32091 22.1332 3.61734Z" fill="#010101"/>
<path d="M24.0647 5.2268C23.8099 5.2268 23.5126 5.2057 23.2792 5.16321C23.173 5.14225 23.0668 5.07866 22.9819 5.03632C22.8332 4.93038 22.6845 4.80334 22.5149 4.6763C22.1751 4.42221 22.1541 4.27393 22.1541 4.21048C22.3026 2.87619 22.1115 1.75393 22.1115 1.75393C22.1115 1.75393 21.9628 1.18218 22.7696 1.03389C23.5764 0.885603 24.0647 0.864502 24.0647 0.864502C24.0647 0.864502 24.5743 0.864502 25.3597 1.03389C26.1665 1.18218 26.0178 1.75393 26.0178 1.75393C26.0178 1.75393 25.8267 2.87634 25.9754 4.21048C25.9754 4.27393 25.9542 4.42221 25.6144 4.6763C25.3171 4.88803 25.0837 5.12086 24.8503 5.16336C24.6166 5.2057 24.3194 5.2268 24.0647 5.2268Z" fill="#010101"/>
<path d="M24.0647 0.313721C22.6636 0.313721 22.3874 0.694842 21.9841 1.11845C21.8993 1.22425 21.9629 1.8596 22.1116 3.21498H22.3027C22.3027 3.21498 22.1752 2.83372 22.1965 2.389C22.2178 1.94429 22.3027 1.96554 22.2389 1.8596C22.154 1.73241 21.9841 1.52068 22.3664 1.30894C22.7485 1.09721 23.343 1.47833 24.0647 1.49958C24.7866 1.47833 25.4022 1.09721 25.7843 1.30894C26.1666 1.52068 25.9967 1.73241 25.9118 1.8596C25.8269 1.98678 25.933 1.94429 25.9543 2.389C25.9755 2.83372 25.8481 3.21498 25.8481 3.21498H26.0391C26.1666 1.8596 26.2515 1.26674 26.1877 1.1608C25.8269 0.694842 25.466 0.334822 24.0647 0.313865V0.313721ZM30.7948 17.001C30.7948 17.001 30.3915 18.2928 29.6059 18.7375C29.4361 18.6528 29.4574 18.5257 29.3087 18.3351C29.2661 18.2717 29.1175 18.2292 29.054 18.1657C28.9903 18.1021 29.0116 17.9962 28.9054 17.9116C28.8204 17.827 28.7567 17.8904 28.6718 17.827C28.5869 17.7423 28.5656 17.6363 28.502 17.5729C28.4595 17.5305 28.2897 17.5093 28.2472 17.4669C28.141 17.361 27.2069 17.1705 27.2495 16.9586C27.3343 16.641 27.5042 16.408 27.5042 16.408C27.5042 16.408 27.9076 15.8151 28.3109 15.8362C28.7142 15.8575 29.0965 15.9422 29.3087 15.7515C29.5423 15.5396 30.8585 16.3233 30.7948 17.001Z" fill="#010101"/>
<path d="M28.0348 7.64094C28.0348 7.64094 29.3723 7.32327 30.2853 8.1916C31.1983 9.08102 31.1345 10.1822 30.8587 10.8599C31.0921 11.1352 31.5168 11.8976 31.1983 12.8081C32.5994 13.994 31.9838 15.8153 30.7313 17.0226C30.7313 17.0226 30.434 15.9213 29.2451 15.8577C29.2876 15.4342 28.141 15.0953 28.6718 13.994C27.865 13.8035 27.8865 13.2528 27.7589 12.5753C27.6527 11.8975 28.0348 7.64094 28.0348 7.64094Z" fill="#010101"/>
<path d="M27.5466 8.23397C27.5466 8.23397 29.0964 7.45034 30.0093 8.33976C30.9222 9.22934 30.6675 10.2033 30.3916 10.881C30.625 11.1563 31.1769 11.94 30.8373 12.8716C30.7735 13.0835 30.3065 13.0835 29.9667 13.6341C30.8158 13.1469 31.3469 13.274 31.5378 13.8881C31.8352 14.8411 31.1769 15.9846 30.6037 16.6199C30.6037 16.5987 30.5825 16.5775 30.5825 16.5564C30.4976 16.8742 30.3914 17.4881 29.7546 18.1658C29.436 18.5047 29.1813 18.4624 28.8203 18.3777C28.3958 18.2718 28.2471 18.081 27.6528 17.7635C27.313 17.573 27.5041 17.34 27.5041 17.1494C27.5041 17.107 27.5466 17.0434 27.6103 16.9589C27.6528 16.8529 27.7801 16.6835 27.9711 16.4929C27.9711 16.4929 28.2471 16.1118 28.6507 16.1329C29.0541 16.1541 29.4786 16.0694 29.5848 15.9635C29.5848 15.2224 28.7357 15.2011 29.0328 13.9306C29.0541 13.867 29.1603 13.761 29.4999 13.7188C28.9903 13.6129 28.7567 13.5916 28.3958 13.2529C28.1411 13.02 27.95 12.7235 27.8862 12.3423C27.759 11.6859 27.5466 8.23397 27.5466 8.23397Z" fill="#F0EFEF"/>
<path d="M23.0664 6.89965C22.9391 6.73026 22.2811 5.88318 21.0283 5.54441C20.6676 5.43847 20.434 5.73489 20.0731 5.94677C19.9669 5.88318 19.4999 5.67145 19.2451 5.81959C18.9904 5.96773 18.8206 6.11616 18.5657 6.22196C18.4382 6.15836 18.0987 6.15836 17.8227 6.2643C17.5467 6.349 17.122 6.53963 16.7186 7.09014C16.4639 8.00081 21.2195 7.32312 21.2195 7.32312L23.0664 6.89965Z" fill="#010101"/>
<path d="M23.1099 6.89975C22.4304 6.66677 22.5367 5.88328 21.0293 5.75624C20.7321 5.73499 20.541 5.96797 20.3287 6.11612C20.4349 6.2222 20.541 6.39144 20.6047 6.56083C20.4136 6.34924 20.074 6.07377 19.7342 6.01018C19.4157 5.94687 19.2034 6.17971 18.8637 6.34924C18.9274 6.41254 18.9912 6.51848 19.0759 6.64567C18.7786 6.45518 18.5665 6.39159 18.1631 6.53973C17.8871 6.62442 17.3563 6.8574 16.953 7.42916C16.6982 8.33983 21.2415 7.32322 21.2415 7.32322L23.1099 6.89975Z" fill="#8AC640"/>
<path d="M27.1002 7.23863C27.1002 7.23863 27.1002 7.00565 27.0791 6.79406C27.0791 6.75171 26.9093 6.64577 26.9093 6.60343L26.8668 6.56108C26.8668 6.56108 27.2066 6.37045 27.4613 6.47639C27.7372 6.56108 27.8859 6.9211 27.8859 6.9211C28.3742 6.75171 28.4166 6.94235 28.6502 7.19643C29.1598 7.09049 29.2234 7.28097 29.5419 7.74708C29.5419 7.74708 29.1598 7.68349 28.4166 7.81038C27.6947 7.91632 27.1002 7.21753 27.1002 7.23863Z" fill="#010101"/>
<path d="M27.0163 7.13261C27.0163 7.13261 27.1438 7.02653 27.1012 7.00543C27.3346 6.87824 27.6532 6.73024 27.8019 7.13261C28.2902 6.96308 28.3539 7.19606 28.5872 7.45029C29.1817 7.17496 29.2242 7.51373 29.2668 7.66188C29.0755 7.66188 28.7998 7.68312 28.4175 7.72547C27.6957 7.83141 26.9951 7.11122 27.0164 7.13247L27.0163 7.13261Z" fill="#8AC640"/>
<path d="M19.7976 6.60317C19.7976 6.60317 21.0078 7.02664 22.0268 6.96305C23.046 6.8785 24.7867 6.79395 25.7209 7.34446C25.7209 7.34446 26.6763 7.00554 27.568 7.23852C28.4598 7.47135 30.0945 8.99627 29.6062 10.6056C29.5638 10.7115 29.2877 10.8809 28.9693 10.9869C28.9693 10.9869 29.1392 11.7068 28.8419 12.2998C28.5447 12.8715 27.8866 13.9728 27.8653 15.4974C27.8442 15.7515 27.8017 16.2808 27.7592 16.535C26.1031 16.4716 23.5556 15.8573 21.0504 15.8998C21.0715 15.6245 21.0927 15.4551 21.1141 15.1798H21.1776C21.0502 14.4808 21.0078 14.1208 20.8803 13.5914C20.0736 13.0832 19.2243 12.4902 18.5025 11.3678C17.802 10.2454 19.7978 6.60303 19.7978 6.60303L19.7976 6.60317ZM27.9925 18.0387C27.9925 18.0387 29.3089 22.7402 27.7591 24.7095C27.7591 24.7095 27.9925 25.6201 27.4618 26.5943C27.3769 27.0178 27.2707 27.3991 27.2071 27.8225C26.931 29.5803 26.4639 30.3214 26.3365 33.1379L25.0626 33.1168C25.0626 33.1168 24.914 31.0838 24.4683 30.0038C24.2135 29.3898 23.2155 28.5637 23.2583 27.7379C23.3006 27.1025 23.4279 26.5731 24.5109 25.726C24.5958 24.4978 23.3643 23.3329 23.5554 18.7587L27.9925 18.0387Z" fill="#010101"/>
<path d="M27.6103 17.8474C27.9501 20.0074 28.7355 23.2052 27.3131 24.7722C27.3971 25.1696 27.4042 25.5793 27.3343 25.9793C27.2918 26.2334 27.2068 26.5087 27.1007 26.8052C26.8884 27.3135 26.8035 28.0546 26.7399 28.4993C26.4637 30.2571 26.4637 30.3421 26.3364 33.1583L25.0625 33.1371C25.0625 33.1371 24.914 31.1042 24.4681 30.0242C24.2134 29.4101 23.6827 28.8807 23.6402 28.0547C23.5977 27.4195 24.0436 26.1489 25.1052 26.1912C25.0415 23.6289 23.8526 24.137 23.5341 18.8005L27.6103 17.8474ZM19.7976 6.60254C19.7976 6.60254 20.2646 6.75083 20.7742 6.79332C21.2836 6.83552 21.8357 6.79332 22.3238 6.77193C23.3429 6.68738 24.7866 6.58144 25.742 7.13195C25.742 7.13195 26.2728 6.96256 26.8461 7.00476C27.1008 7.02601 27.3557 7.23789 27.6529 7.32258C28.5869 7.55542 29.4786 9.10144 29.0752 10.4992C29.0327 10.6051 28.7355 10.4992 28.3958 10.6051C28.4594 10.9017 28.502 11.5792 28.1622 12.2993C27.8014 13.0193 27.3343 13.9512 27.4192 15.7299C25.19 15.624 24.1922 15.4759 21.9842 15.3699C21.7931 14.5863 21.6656 13.8028 21.6444 13.4004C21.9417 13.2521 22.1114 13.1253 22.3451 12.871C21.7083 12.977 21.4535 12.9346 21.0712 12.7227C20.6891 12.511 20.0097 11.8333 19.6701 11.3887C19.6276 11.3463 19.3941 12.0449 18.8633 12.0663C18.6722 11.791 19.479 11.0073 19.3303 10.7109C18.7997 9.63084 19.7976 6.60254 19.7976 6.60254Z" fill="#F0EFEF"/>
<path d="M27.7799 16.0901C27.7799 16.0901 27.8223 16.8526 27.8223 17.0431C27.8223 17.2549 27.9923 17.8901 28.0134 18.1866C27.7799 18.589 26.7608 19.4997 24.9138 19.8386C23.088 20.2197 20.6677 17.3608 20.6677 17.3608C20.7315 17.0855 20.9437 16.2807 21.0923 15.8573C21.1136 15.8151 21.156 15.7091 21.156 15.6668C21.3473 15.3915 27.7799 16.0902 27.7799 16.0902V16.0901Z" fill="#010101"/>
<path d="M27.3133 16.1537C27.3133 16.6831 27.3982 17.0643 27.462 17.4033C27.5682 18.0175 27.7378 18.4197 27.7378 18.8221C27.7378 20.0503 26.1243 19.8384 24.7655 19.8809C22.9398 20.2622 21.3899 17.4033 21.3899 17.4033C21.5174 16.9162 21.6023 16.3655 21.7933 15.8997C21.8144 15.6456 21.857 15.328 21.8782 15.1797C24.4683 15.1797 26.2941 15.328 27.3558 15.4338C27.3982 15.6667 27.3558 16.0691 27.3135 16.1538L27.3133 16.1537Z" fill="#F0EFEF"/>
<path d="M25.2746 18.8852C25.2746 18.8852 24.1495 16.3863 20.7738 17.1277C19.9671 19.3935 18.8843 21.9983 19.5849 24.8148C18.8843 25.7678 18.0776 26.2972 18.0776 28.0548C18.0776 29.8125 18.1626 30.109 18.1626 30.109L20.6465 30.2362C20.6465 30.2362 21.4533 29.1986 21.7717 28.0762C21.8567 27.7585 21.9416 27.1868 21.8779 26.5303C21.9628 26.4033 22.3237 26.1068 22.3661 25.5351C22.3661 25.5351 23.5763 24.8999 24.2769 23.354C24.9351 21.956 24.7652 20.749 25.2748 18.8852H25.2746Z" fill="#010101"/>
<path d="M25.2747 18.8852C25.2112 18.6525 24.3618 16.3652 21.2197 17.0427C19.3727 21.9558 20.0521 23.9889 20.328 24.8782C19.0754 26.4665 18.5023 26.8052 18.757 30.0242H20.4132C21.1773 28.8173 21.3472 28.3724 21.3896 26.7842C21.3896 26.7206 21.1562 26.9114 20.9862 27.1231C21.1137 26.4667 21.4745 26.3396 21.7505 25.9373C21.8781 25.7677 21.9841 25.5138 21.9841 25.1749C23.4703 24.1795 24.0222 22.9301 24.3407 21.6383C24.5954 20.7488 24.8927 19.2877 25.2748 18.8853L25.2747 18.8852Z" fill="#F0EFEF"/>
<path d="M20.0309 15.4758C20.0309 15.4758 20.6042 15.4969 21.1138 15.6666C21.6021 15.8357 21.6021 15.9416 21.7932 16.1537C21.9842 16.3654 22.4513 16.6829 22.3664 17.0006C22.324 17.17 22.2178 17.2123 22.0693 17.3606C22.0055 17.4242 21.5384 17.9324 21.4323 17.9958C21.3686 18.0382 21.2836 18.1018 21.2199 18.1441L20.9016 18.3558C20.6891 18.4618 20.5405 18.5254 20.3071 18.5041C20.3071 18.5041 19.7763 18.483 19.4365 18.123C19.4365 18.123 19.3941 17.9535 19.4791 17.8689C19.4791 17.8689 19.0332 17.4877 18.9058 17.2336C18.7783 16.9796 18.7783 16.6195 18.8633 16.429C18.9058 16.2382 19.7337 15.7088 20.031 15.4758H20.0309ZM20.5618 36.0812L20.498 36.6108C20.498 36.6108 20.3071 36.8438 18.8846 36.8225C17.4409 36.8014 17.0588 36.3567 16.9315 36.1237L16.8466 35.5731C16.8466 35.5731 17.1226 35.1707 17.1862 35.1707C17.6533 35.2131 19.2456 35.8486 20.3497 36.0177C20.4556 36.0177 20.4767 36.0601 20.5618 36.0812ZM23.6402 35.0013C23.6402 35.2342 23.6189 35.2342 23.6189 35.4671C23.8736 35.6578 24.5107 35.7637 25.7207 35.7423C27.4829 35.7001 29.1176 36.2719 31.1133 35.9331L31.1346 35.5518L30.9436 35.5307L23.8738 34.9588L23.6402 35.0013Z" fill="#010101"/>
<path d="M25.1906 35.7431H25.7213C26.8679 35.7009 27.9507 35.955 29.1182 36.0184C29.734 35.9973 30.4983 35.849 30.4346 35.4043L24.4051 34.896C24.0442 35.2984 24.3201 35.6371 25.1906 35.7431ZM18.2694 26.8276C18.4605 26.9547 19.7556 27.7171 21.8574 27.6112C21.815 28.0134 21.8363 28.797 20.9022 30.1735C20.435 30.8511 20.0316 32.0372 19.9467 33.5408C19.968 33.8795 20.159 34.176 19.9043 34.6207C19.9892 34.8959 20.3288 35.4465 20.4988 35.7854C20.6686 36.1243 20.7535 36.5055 19.6282 36.5267C18.4817 36.5478 16.6347 36.4208 16.8896 35.5313C17.0171 35.0655 17.3779 34.5783 17.4203 34.3877C17.4628 34.1972 17.4628 33.6255 17.8237 33.2442C18.1422 32.1854 18.036 31.1688 17.9724 30.2159C17.8662 29.2205 17.8447 27.6323 18.2694 26.8276ZM20.2439 9.56812C21.7512 7.55628 20.4775 5.94696 18.0574 6.43388C17.0807 6.62465 16.1043 7.30235 16.0405 8.53041C15.722 8.57275 15.0002 8.6151 14.6392 9.928C14.3634 10.9446 14.2147 11.1352 13.7264 11.6434C13.4079 12.0034 13.7476 12.7447 13.981 13.2741C14.7666 15.0952 17.1868 15.2647 18.8216 16.6412C19.3737 16.4929 19.9469 15.8788 20.1167 15.4766C18.7367 13.8459 19.0339 13.2107 18.4818 12.3634C19.0765 12.1516 20.4352 11.3257 20.244 9.56826L20.2439 9.56812Z" fill="#010101"/>
<path d="M19.9454 9.44085C20.0303 9.31367 20.1789 9.03863 20.2427 8.93254C20.264 8.91144 20.4974 9.31381 20.5187 9.29271C21.0919 8.36079 21.2406 7.00555 20.5823 6.87851C20.4337 6.85726 20.1578 6.79381 19.9242 6.70897C19.4997 6.56069 19.1176 6.56069 18.438 6.68787C17.5039 6.85726 16.5698 7.53481 16.5698 8.50893C16.5698 8.57252 17.2277 8.76316 17.4189 9.54665C17.1004 9.10193 16.5483 8.61487 15.8902 9.03848C15.1897 9.4832 15.5506 10.4997 14.6166 11.5585C14.2978 11.9184 14.3404 12.3421 14.6801 13.1891C15.2321 14.5232 17.8435 15.2432 19.266 16.5138C19.6056 16.3655 19.8392 16.0267 20.009 15.7726C19.0536 14.7773 18.6715 13.8455 18.3954 13.1678C18.0558 12.3842 17.6736 11.9396 16.9306 11.3465C17.3127 11.4946 17.61 11.6429 17.7796 11.7699C17.9706 11.8971 18.2466 11.9182 18.5015 11.8335C19.4146 11.5161 19.9029 10.2454 19.9454 9.44085Z" fill="#F0EFEF"/>
<path d="M29.181 9.77994C29.1173 10.5847 28.5229 10.1823 28.2044 10.0342C27.5676 9.75884 26.9307 9.56821 26.1875 9.56821C25.4445 9.56821 24.4892 9.6318 23.6613 9.84354C22.5147 10.1612 22.1751 10.1401 21.6655 9.88588C21.1561 9.61056 20.2644 8.93286 20.2644 8.93286C20.2644 8.93286 20.2431 9.1446 20.4555 9.41992C20.7314 9.75884 21.3472 10.1823 22.1751 10.4576C22.5785 10.5848 22.897 10.4998 23.2579 10.4153C25.1475 9.94933 27.1429 9.86464 28.8202 10.8811C28.9051 10.9235 29.2025 10.7964 29.3298 10.6058C29.4995 10.3306 29.181 9.77994 29.181 9.77994Z" fill="#010101"/>
<path d="M19.5209 17.8477C19.6907 17.9536 19.9031 18.0172 20.1365 18.2078C20.1365 18.2078 19.9454 18.2078 19.8607 18.1231C19.7544 18.0595 19.542 17.8689 19.5209 17.8477Z" fill="#0A1825"/>
<path d="M25.6571 1.0547C25.5934 0.86421 25.1264 0.525146 24.0436 0.525146C22.8759 0.525146 22.5362 0.885311 22.5151 1.0758C22.5151 1.13939 22.4302 1.81723 22.4089 2.09227C22.4089 2.09227 22.4089 2.43119 22.43 2.93935C22.4513 3.27812 22.5362 3.46876 22.5787 3.91347C22.6211 4.37929 22.7487 4.67586 22.9821 5.05712C23.0883 5.12043 23.1732 5.18416 23.2794 5.20527C23.7039 5.28996 24.4471 5.3112 24.8505 5.20527C25.0839 5.14167 25.3812 4.73945 25.4448 4.37943C25.5297 3.93472 25.6147 3.61704 25.636 3.34172C25.6784 3.06653 25.6997 2.45243 25.7207 2.2829C25.7845 1.81709 25.6784 1.09705 25.6573 1.0547H25.6571Z" fill="#F0EFEF"/>
<path d="M23.4272 27.229C23.4272 27.229 24.5526 27.7161 27.3337 27.2926C27.3337 27.2926 26.5484 31.2316 26.9092 33.2009C26.9092 33.2009 27.27 33.7092 29.9451 34.6833C29.9451 34.6833 31.134 34.9799 31.0917 35.5729C31.0917 35.5729 31.1341 35.7 29.6906 35.6575C28.2468 35.6151 26.888 35.361 25.9326 35.361C24.9773 35.361 23.9581 35.4034 23.7883 35.1281C23.5973 34.874 23.8307 34.2175 24.1068 33.8363C24.4041 33.4339 24.319 33.1373 24.298 32.4174C24.234 30.5328 22.7903 28.5845 23.4272 27.2291V27.229Z" fill="#010101"/>
<path d="M23.194 27.5901C23.0455 27.802 23.2151 28.6066 23.4276 29.3901C23.6398 30.1737 24.1071 30.6396 24.2132 31.9313C24.3192 33.202 24.3405 33.3714 23.9796 34.1124C23.6185 34.8535 23.5125 35.5314 24.7649 35.5525C26.0175 35.5737 26.6971 35.5314 27.9708 35.722C29.2448 35.9126 29.6906 35.9761 30.3912 35.8703C31.0917 35.7643 31.2402 35.5314 30.9432 35.3196C30.6459 35.1079 29.4146 34.8749 28.8837 34.4513C28.3741 34.0702 26.9305 33.4348 26.9094 33.2654C26.8456 32.6935 26.8244 30.6183 26.9305 29.9407C27.0367 29.2629 27.1852 28.2889 27.2278 28.0348C27.2703 27.7807 27.4826 27.5265 27.1216 27.6113C26.7608 27.6959 25.402 27.8865 24.383 27.8231C23.3639 27.7595 23.2577 27.5266 23.194 27.5902V27.5901Z" fill="#8AC640"/>
<path opacity="0.3" d="M23.9155 34.133C24.2763 34.3024 24.8073 34.4296 25.2107 34.4296C25.2107 34.4296 25.0619 35.1285 25.2955 35.552C25.529 35.9754 23.597 35.7214 23.597 35.7214L23.5123 34.2178L23.9155 34.133ZM29.5417 35.9542C29.8814 35.8482 30.1149 35.4671 29.8389 35.1073C29.5416 34.7472 29.2869 34.6838 29.669 34.6625C30.0512 34.6413 31.4523 35.4884 31.4523 35.4884L30.7305 36.1448L29.5417 35.9542ZM23.1299 28.4152C23.6182 28.5847 24.3613 28.627 24.9983 28.6059C25.6353 28.5847 26.5907 28.4998 27.2065 28.2881C27.822 28.0764 27.5673 28.5211 27.5673 28.5211L27.2275 28.8388C27.2275 28.8388 26.4209 29.1564 25.1045 29.1353C23.5547 29.1141 23.0876 28.9447 23.0876 28.9447L23.1299 28.4152ZM23.1723 29.4741C23.6608 29.6436 24.4038 29.6858 25.0408 29.6647C25.6777 29.6436 26.5269 29.6436 27.1426 29.4107C27.3973 29.326 27.2488 29.686 27.2488 29.686L27.1426 29.8765C27.1426 29.8765 26.3147 30.1731 25.0195 30.1517C23.4697 30.1306 23.1938 30.0035 23.1938 30.0035L23.1723 29.4741Z" fill="#010101"/>
<path d="M21.7725 14.6289C21.7725 14.7772 23.4287 15.603 24.3415 15.7726C25.2543 15.9419 27.165 15.7726 27.4622 15.709L27.4198 16.0055C27.4198 16.0055 25.1481 16.3443 23.4072 15.8784C21.6663 15.4125 21.8574 15.3066 21.8574 15.3066L21.7725 14.6289Z" fill="#010101"/>
<path d="M18.227 32.6935C18.4819 32.8207 19.3948 33.0537 19.9892 32.9267C20.0741 32.9054 19.9892 31.4653 20.2229 30.8089C20.5625 29.8982 21.1146 29.1569 21.3692 27.5478C20.4775 27.4629 19.4584 27.2299 18.9277 27.0605C18.2484 29.136 18.482 30.9147 18.2271 32.6937L18.227 32.6935ZM19.6496 34.0278C19.7982 34.0702 19.9043 34.2396 19.9469 34.1338C20.0316 33.943 19.7982 33.5831 19.7769 33.329V33.3078C19.586 33.1385 18.2907 33.1173 18.3758 33.2018C18.2271 33.4772 17.9937 33.435 17.9088 33.9855C17.8664 34.2607 18.2061 34.0278 18.5245 34.0066C17.9513 34.3877 17.2932 34.8749 17.1869 35.2984C17.0594 35.8914 17.2719 36.0608 17.9088 36.3786C18.4609 36.5056 19.119 36.5269 19.6284 36.5056C20.2018 36.3997 20.308 36.1245 20.138 35.7432C19.883 35.1713 19.7133 34.4302 19.6497 34.0277L19.6496 34.0278Z" fill="#F0EFEF"/>
<path d="M19.8817 6.51855C20.5824 6.92092 21.5589 6.81513 21.9197 6.79388C22.0048 6.79388 22.854 6.64574 22.8963 6.6667C22.9812 6.68794 22.9812 6.75153 22.9812 6.75153C22.9812 6.75153 22.6629 6.92092 21.941 6.96312C21.2616 7.00547 20.4549 6.96312 20.0092 6.75153C19.4784 6.51856 19.8817 6.51855 19.8817 6.51855ZM27.1003 6.92092C27.2276 7.00562 28.0556 7.32329 28.4165 7.70441C28.735 8.04347 28.5652 8.02223 28.5014 7.93753C28.4165 7.8316 27.7584 7.38688 27.5035 7.28109C27.2488 7.17515 26.9303 6.98451 26.9303 6.94217C26.9303 6.89982 27.1003 6.92092 27.1003 6.92092Z" fill="#010101"/>
<path d="M19.7759 15.71C20.3917 15.6678 21.0287 15.816 21.4321 16.2394C21.6443 16.4513 21.9841 16.6842 21.9415 16.8959C21.9415 16.9595 21.814 17.129 21.7081 17.2561C21.6443 17.3406 21.4534 17.5312 21.3896 17.5948C21.3047 17.6584 21.0074 17.8914 20.9438 17.9336C20.88 17.9761 20.7951 18.082 20.7315 18.1031C20.5192 18.2091 20.2857 18.1244 20.0734 18.0186C19.8611 17.9125 20.1159 17.8914 19.8823 17.722C19.3091 17.3196 18.9906 17.0442 19.2242 16.2607C19.2453 16.1124 19.4788 15.943 19.7759 15.71Z" fill="#F0EFEF"/>
<path opacity="0.4" d="M14.3627 10.8596C12.452 11.6221 7.59005 14.0363 6.21008 14.7775C7.35663 15.4975 7.88723 17.2339 8.05719 18.9916C8.07835 19.1612 8.09965 19.3095 8.12095 19.4787C8.1421 19.627 8.1634 19.7329 8.18455 19.7967C8.18455 19.8178 8.18455 19.8601 8.20585 19.8812C9.45846 16.4718 13.9379 12.8716 14.108 12.5964C14.1927 12.4692 14.0018 11.9186 14.2989 11.3894C14.6812 10.7116 15.4243 10.4149 14.3627 10.8596ZM18.906 26.8488C19.8826 24.9005 19.9039 23.0368 19.8826 20.8556C19.8826 19.9451 20.5407 18.6531 20.2012 19.0132C18.9273 20.432 15.7215 23.1004 13.4074 23.2486C16.6556 23.1428 17.9294 24.7733 18.906 26.8488Z" fill="#010101"/>
<path d="M4.34161 16.5773C5.55177 15.7091 11.8148 12.3845 13.3221 11.9184C14.8295 11.4314 14.3625 10.8596 14.3625 10.8596C14.3625 10.8596 8.24796 13.4856 4.59648 15.7515" fill="#010101"/>
<path opacity="0.4" d="M22.1753 10.4575C21.6871 10.267 21.305 10.8387 21.4323 11.3894C21.5598 11.94 22.7062 12.554 22.6425 14.5661C22.6 16.2178 22.2391 16.8953 22.2391 16.8953L21.4323 15.879C21.4323 15.879 21.305 13.5918 21.0289 13.2529C20.7531 12.914 19.8825 12.2999 19.5428 11.9822C19.2031 11.6646 19.9249 11.2411 19.8825 10.6481C19.8401 10.0763 20.2433 8.93283 20.2433 8.93283L22.1753 10.4575ZM25.1264 19.4789C25.0841 21.067 25.445 23.4178 25.5935 24.5403C25.7422 25.6626 25.9332 25.7473 25.5935 26.2556C25.2539 26.7426 24.8081 27.5475 24.8081 27.5475L23.3431 27.4203C23.3431 27.4203 24.5108 25.9379 24.5744 25.6626C24.6381 25.3874 23.9799 23.2909 23.9799 23.2909L25.1264 19.4789ZM22.3027 4.65464C22.6 5.3108 22.9608 5.60737 23.534 5.79815C23.8738 5.92519 25.2112 6.09458 25.7422 5.50158C25.9755 5.22625 25.827 4.48511 25.827 4.48511L24.6168 5.45923L22.9821 5.1628L22.791 4.67574L22.3027 4.65464Z" fill="#010101"/>
<path d="M22.4303 6.11597C22.9824 6.47613 24.3623 6.81491 24.7444 6.8785C25.1266 6.96305 25.7423 6.47613 26.0396 6.34909C26.3581 6.2008 26.9101 6.11597 27.547 6.68787C27.6107 6.75146 27.3983 7.02664 27.3983 7.02664C27.377 7.00554 27.2496 7.00554 27.0797 6.9207C26.91 6.83615 26.7613 6.77256 26.5066 6.79366C25.445 6.92085 25.2752 7.28072 24.3412 7.06884C23.407 6.85696 23.1733 6.68772 22.2605 6.73007" fill="#8AC640"/>
<path d="M22.4303 6.11597C22.9824 6.47613 24.3623 6.81491 24.7444 6.8785C25.1266 6.96305 25.7423 6.47613 26.0396 6.34909C26.3581 6.2008 26.9101 6.11597 27.547 6.68787C27.6107 6.75146 27.3983 7.02664 27.3983 7.02664C27.377 7.00554 27.2496 7.00554 27.0797 6.9207C26.91 6.83615 26.7613 6.77256 26.5066 6.79366C25.445 6.92085 25.2752 7.28072 24.3412 7.06884C23.407 6.85696 23.1733 6.68772 22.2605 6.73007" stroke="#010101" stroke-width="0.140487" stroke-miterlimit="10" stroke-linejoin="round"/>
<path d="M22.2391 6.17944C22.9398 6.47602 24.2984 6.79369 24.6805 6.87838C25.0626 6.96308 25.6784 6.58181 25.9757 6.39132C26.5065 6.0524 27.1857 6.32773 27.5044 6.68775C27.7165 6.92073 27.8015 7.06902 27.8015 7.13246C27.8015 7.21716 27.5468 7.13246 27.5468 7.13246C27.3982 7.06887 27.2283 7.04791 27.101 6.96293C26.9312 6.87838 26.7612 6.75134 26.5066 6.77244C25.445 6.89963 25.2327 7.2595 24.3199 7.04777C23.4071 6.83589 23.1735 6.6454 22.1969 6.70885" fill="#8AC640"/>
<path d="M18.9485 25.9582C18.9062 25.916 18.991 25.8737 18.9485 25.8737C18.6726 25.8737 18.2904 25.662 18.078 25.3654C17.1652 24.0525 15.8275 23.1843 13.4073 23.2478C9.77686 23.3323 8.33314 21.8502 8.05726 19.0124C7.90874 17.4665 7.48406 15.9628 6.61354 15.1157L6.10394 15.4334C7.08053 16.2803 7.39915 17.657 7.61128 19.5418C7.95105 22.3794 10.244 23.6926 12.9189 23.7348C15.7001 23.7772 16.6979 24.3491 17.7381 25.7467C18.0778 26.1914 18.4601 26.3397 18.7573 26.4031L18.9485 25.9582Z" fill="#010101"/>
<path opacity="0.4" d="M28.7998 12.3418C28.8636 12.6595 29.0334 13.2736 29.373 13.57C29.5218 13.7183 29.543 13.7606 29.4156 13.7606C29.2881 13.7606 28.354 13.7183 28.354 13.7183L28.0992 13.2736L28.7998 12.3418Z" fill="#010101"/>
</g>
<defs>
<clipPath id="clip0_2028_210">
<rect width="32" height="37" fill="white"/>
</clipPath>
</defs>
</svg>
