<svg width="36" height="36" viewBox="0 0 36 36" fill="none" xmlns="http://www.w3.org/2000/svg">
<g clip-path="url(#clip0_2028_434)">
<path d="M3.07918 17.6596V32.24H32.24V3.07918H3.07918V17.6596Z" fill="#007ACC"/>
<path d="M9.52769 17.7564L9.51846 18.9505H13.3139V29.7355H15.9988V18.9505H19.7942V17.7795C19.7942 17.1314 19.7803 16.5899 19.7619 16.576C19.748 16.5575 17.4383 16.5482 14.6379 16.5529L9.5417 16.5667L9.5278 17.7563L9.52769 17.7564ZM26.6091 16.5328C27.3496 16.718 27.9144 17.0465 28.4328 17.5835C28.7013 17.8706 29.0993 18.3936 29.1318 18.5186C29.1409 18.5556 27.8727 19.4073 27.1044 19.884C27.0766 19.9026 26.9654 19.7822 26.8405 19.597C26.4656 19.0509 26.0721 18.8148 25.4704 18.7732C24.5864 18.7129 24.017 19.1758 24.0217 19.9487C24.0217 20.1756 24.054 20.3098 24.1466 20.495C24.3411 20.8977 24.702 21.1384 25.8361 21.629C27.9236 22.5271 28.8169 23.1195 29.3724 23.9619C29.9927 24.9016 30.1315 26.4012 29.7103 27.5168C29.2475 28.7294 28.0996 29.5535 26.484 29.8265C25.9842 29.9144 24.7993 29.9005 24.2623 29.8034C23.0914 29.595 21.9804 29.0165 21.2953 28.2574C21.0269 27.9611 20.5038 27.1881 20.5363 27.1325C20.5501 27.1141 20.6704 27.0401 20.8046 26.9613C20.9343 26.8873 21.425 26.6048 21.8878 26.3364L22.7256 25.8504L22.9015 26.1096C23.1468 26.4845 23.6837 26.9984 24.0078 27.1696C24.9381 27.6603 26.2157 27.5908 26.8451 27.026C27.1136 26.7808 27.2247 26.5262 27.2247 26.1512C27.2247 25.8134 27.183 25.6653 27.0071 25.4108C26.7804 25.0867 26.3175 24.8136 25.0029 24.2444C23.4986 23.5962 22.8506 23.1936 22.2581 22.5547C21.9156 22.1845 21.5915 21.592 21.4573 21.0967C21.3463 20.6848 21.3184 19.6526 21.4064 19.236C21.7166 17.7825 22.8135 16.7689 24.3965 16.468C24.9103 16.3708 26.1045 16.4077 26.6091 16.5328Z" fill="white"/>
</g>
<defs>
<clipPath id="clip0_2028_434">
<rect width="28.4109" height="28.4109" fill="white" transform="translate(3.07918 3.07918) scale(1.02639)"/>
</clipPath>
</defs>
</svg>
