<svg width="29" height="29" viewBox="0 0 29 29" fill="none" xmlns="http://www.w3.org/2000/svg">
<g clip-path="url(#clip0_2028_94)">
<path d="M9.84982 22.509C9.84982 22.6223 9.71955 22.7129 9.55529 22.7129C9.36837 22.7299 9.2381 22.6393 9.2381 22.509C9.2381 22.3957 9.36838 22.3051 9.53263 22.3051C9.70256 22.2881 9.84982 22.3787 9.84982 22.509ZM8.0883 22.2541C8.04865 22.3674 8.16193 22.4977 8.33185 22.5317C8.47912 22.5883 8.64904 22.5317 8.68302 22.4184C8.71701 22.3051 8.60939 22.1748 8.43947 22.1238C8.2922 22.0842 8.12795 22.1408 8.0883 22.2541ZM10.5918 22.1578C10.4276 22.1975 10.3143 22.3051 10.3313 22.4354C10.3483 22.5487 10.4955 22.6223 10.6654 22.5826C10.8297 22.543 10.943 22.4354 10.926 22.3221C10.909 22.2145 10.7561 22.1408 10.5918 22.1578ZM14.3188 0.453137C6.46271 0.453137 0.453137 6.4174 0.453137 14.2735C0.453137 20.5549 4.40665 25.9301 10.0537 27.8219C10.7787 27.9522 11.0336 27.5047 11.0336 27.1365C11.0336 26.7854 11.0166 24.8483 11.0166 23.6588C11.0166 23.6588 7.05177 24.5084 6.21916 21.9709C6.21916 21.9709 5.57345 20.3227 4.64455 19.8979C4.64455 19.8979 3.34747 19.0086 4.73517 19.0256C4.73517 19.0256 6.14552 19.1389 6.9215 20.4869C8.16193 22.6733 10.2406 22.0446 11.0506 21.6707C11.1809 20.7645 11.549 20.1358 11.9569 19.7619C8.79064 19.4108 5.59611 18.952 5.59611 13.5031C5.59611 11.9455 6.02658 11.1639 6.93283 10.167C6.78556 9.79884 6.30412 8.28088 7.08009 6.32111C8.26388 5.95294 10.9883 7.85041 10.9883 7.85041C12.1211 7.53322 13.3389 7.36896 14.5453 7.36896C15.7518 7.36896 16.9696 7.53322 18.1024 7.85041C18.1024 7.85041 20.8268 5.94728 22.0106 6.32111C22.7865 8.28654 22.3051 9.79884 22.1578 10.167C23.0641 11.1695 23.6192 11.9512 23.6192 13.5031C23.6192 18.969 20.283 19.4051 17.1168 19.7619C17.6379 20.2094 18.0797 21.059 18.0797 22.3901C18.0797 24.2989 18.0627 26.6608 18.0627 27.1252C18.0627 27.4934 18.3233 27.9408 19.0426 27.8106C24.7067 25.9301 28.5469 20.5549 28.5469 14.2735C28.5469 6.4174 22.1748 0.453137 14.3188 0.453137ZM5.95861 19.9885C5.88498 20.0451 5.90197 20.1754 5.99826 20.283C6.08888 20.3737 6.21916 20.4133 6.29279 20.3397C6.36642 20.283 6.34943 20.1528 6.25314 20.0451C6.16251 19.9545 6.03224 19.9149 5.95861 19.9885ZM5.34689 19.5297C5.30724 19.6033 5.36388 19.694 5.47716 19.7506C5.56779 19.8072 5.68107 19.7903 5.72072 19.711C5.76037 19.6373 5.70373 19.5467 5.59044 19.4901C5.47716 19.4561 5.38654 19.4731 5.34689 19.5297ZM7.18205 21.5461C7.09142 21.6197 7.12541 21.7897 7.25568 21.8973C7.38595 22.0276 7.55021 22.0446 7.62384 21.9539C7.69748 21.8803 7.66349 21.7104 7.55021 21.6028C7.4256 21.4725 7.25568 21.4555 7.18205 21.5461ZM6.53634 20.7135C6.44572 20.7701 6.44572 20.9174 6.53634 21.0477C6.62697 21.178 6.7799 21.2346 6.85353 21.178C6.94416 21.1043 6.94416 20.9571 6.85353 20.8268C6.77423 20.6965 6.62697 20.6399 6.53634 20.7135Z" fill="black"/>
</g>
<defs>
<clipPath id="clip0_2028_94">
<rect width="28.8" height="28.8" fill="white" transform="scale(1.00694)"/>
</clipPath>
</defs>
</svg>
