<svg width="36" height="36" viewBox="0 0 36 36" fill="none" xmlns="http://www.w3.org/2000/svg">
<g clip-path="url(#clip0_2028_458)">
<path d="M11.2399 20.1987C11.4574 20.0743 11.7371 20.152 11.8613 20.3748L11.9442 20.5146C12.5812 21.6435 13.2441 22.7155 13.9328 23.7306C14.7459 24.9269 15.6625 26.1388 16.6828 27.366C16.7605 27.4583 16.7986 27.5775 16.7889 27.6978C16.7792 27.818 16.7225 27.9296 16.631 28.0082L16.5326 28.0962C13.1612 31.043 10.9758 31.6281 9.96588 29.8622C8.97686 28.1326 9.33416 24.9942 11.0379 20.4369C11.0751 20.3362 11.1466 20.2518 11.2399 20.1987ZM25.5851 23.6633C25.8285 23.6218 26.0615 23.7773 26.1081 24.0206L26.1341 24.1553C26.9678 28.5105 26.3826 30.6909 24.3784 30.6909C22.4157 30.6909 19.9247 28.8316 16.8899 25.1184C16.8218 25.0356 16.7867 24.9305 16.7916 24.8233C16.7916 24.5748 16.9986 24.3727 17.2472 24.3727H17.4078C18.6502 24.3825 19.8925 24.3393 21.1313 24.2433C22.5503 24.1293 24.0366 23.9377 25.5851 23.6633ZM26.7398 14.414C26.7822 14.2995 26.8678 14.2062 26.9781 14.1539C27.0884 14.1017 27.2148 14.0946 27.3303 14.1343L27.465 14.1809C31.7892 15.6517 33.4361 17.2726 32.3951 19.0386C31.3801 20.7684 28.4282 22.0269 23.5342 22.814C23.4255 22.8295 23.3115 22.8087 23.2183 22.7517C22.9956 22.6223 22.918 22.3427 23.0526 22.12L23.1355 21.9802C23.8036 20.8616 24.4042 19.7482 24.948 18.6347C25.5799 17.3244 26.1805 15.9158 26.7398 14.414ZM12.3898 13.1089C12.4985 13.0934 12.6125 13.1142 12.7057 13.1712C12.9284 13.3006 13.006 13.5802 12.8714 13.803L12.7886 13.9427C12.1377 15.0319 11.5329 16.1481 10.976 17.2882C10.3441 18.5985 9.74342 20.0071 9.18408 21.5089C9.14163 21.6234 9.05613 21.7167 8.94583 21.769C8.83553 21.8212 8.70917 21.8283 8.59372 21.7887L8.45902 21.742C4.13479 20.2712 2.48793 18.6503 3.52892 16.8843C4.54392 15.1546 7.49586 13.896 12.3898 13.1089ZM19.3914 7.8267C22.7628 4.87993 24.9482 4.29487 25.9581 6.06078C26.9471 7.79037 26.5898 10.9287 24.8861 15.486C24.849 15.5868 24.7774 15.6711 24.6841 15.7242C24.4666 15.8486 24.1869 15.7709 24.0627 15.5482L23.9798 15.4083C23.3428 14.2794 22.6799 13.2074 21.9912 12.1923C21.1781 10.9961 20.2615 9.78418 19.2412 8.55692C19.1635 8.46462 19.1254 8.34541 19.1351 8.22517C19.1448 8.10493 19.2015 7.99338 19.293 7.91473L19.3914 7.8267ZM11.7112 5.06646C13.674 5.06646 16.1702 6.92558 19.1998 10.6386C19.2664 10.7207 19.303 10.823 19.3033 10.9287C19.2982 11.1825 19.0963 11.3845 18.8425 11.3845L18.6871 11.3792C17.4446 11.3736 16.2024 11.4186 14.9636 11.5139C13.5395 11.6279 12.0532 11.8195 10.5047 12.0939C10.3874 12.1139 10.267 12.0872 10.1692 12.0194C10.0714 11.9517 10.0041 11.8483 9.98166 11.7315L9.95567 11.6019C9.12177 7.24668 9.70696 5.06646 11.7112 5.06646ZM15.5176 12.7723H20.4064C20.5541 12.7724 20.6993 12.8111 20.8274 12.8847C20.9555 12.9583 21.0621 13.0642 21.1366 13.1918L23.5862 17.4591C23.6575 17.5865 23.695 17.73 23.695 17.876C23.695 18.022 23.6575 18.1655 23.5862 18.2929L21.1366 22.5654C21.0621 22.693 20.9556 22.7989 20.8275 22.8725C20.6994 22.9461 20.5542 22.9848 20.4065 22.9849H15.5178C15.2173 22.9849 14.9377 22.8244 14.7926 22.5654L12.3379 18.2929C12.2666 18.1655 12.2291 18.022 12.2291 17.876C12.2291 17.73 12.2666 17.5864 12.3379 17.459L14.7927 13.1918C14.9376 12.9329 15.2173 12.7723 15.5176 12.7723ZM19.8005 13.8236C19.9483 13.8237 20.0934 13.8624 20.2215 13.936C20.3496 14.0096 20.4563 14.1155 20.5307 14.2431L22.3743 17.4591C22.4456 17.5865 22.4831 17.73 22.4831 17.876C22.4831 18.022 22.4456 18.1655 22.3743 18.2929L20.5307 21.5141C20.4563 21.6417 20.3496 21.7476 20.2215 21.8212C20.0934 21.8948 19.9483 21.9335 19.8005 21.9336H16.1236C15.8232 21.9336 15.5436 21.773 15.3986 21.5141L13.5498 18.2929C13.4785 18.1655 13.441 18.022 13.441 17.876C13.441 17.73 13.4785 17.5864 13.5498 17.459L15.3986 14.2431C15.5436 13.9842 15.8232 13.8236 16.1236 13.8236H19.8005ZM19.148 14.9733H16.7762C16.4758 14.9733 16.2013 15.1287 16.051 15.3928L14.8601 17.4591C14.7887 17.5865 14.7513 17.73 14.7513 17.876C14.7513 18.022 14.7887 18.1655 14.8601 18.2929L16.0511 20.3644C16.1245 20.4918 16.2302 20.5977 16.3574 20.6713C16.4847 20.7449 16.6291 20.7838 16.7762 20.7839H19.148C19.295 20.7838 19.4395 20.745 19.5668 20.6713C19.6941 20.5977 19.7997 20.4918 19.8732 20.3644L21.0641 18.2929C21.1354 18.1655 21.1729 18.022 21.1729 17.876C21.1729 17.73 21.1354 17.5864 21.0641 17.459L19.873 15.3928C19.7228 15.1287 19.4484 14.9733 19.148 14.9733ZM18.5162 16.0712C18.8165 16.0712 19.0963 16.2318 19.2412 16.4907L19.8006 17.4591C19.9507 17.7181 19.9507 18.0392 19.8006 18.2929L19.2412 19.2665C19.0963 19.5255 18.8165 19.686 18.5162 19.686H17.4079C17.2609 19.6859 17.1165 19.647 16.9892 19.5734C16.862 19.4998 16.7564 19.3939 16.683 19.2665L16.1235 18.2929C15.9734 18.0392 15.9734 17.7181 16.1235 17.459L16.683 16.4907C16.7564 16.3633 16.862 16.2574 16.9892 16.1838C17.1165 16.1102 17.2609 16.0713 17.4079 16.0712H18.5162ZM17.9621 17.1536C17.835 17.1539 17.7103 17.1876 17.6003 17.2512C17.4904 17.3148 17.399 17.4062 17.3354 17.5161C17.206 17.7389 17.206 18.0133 17.3354 18.2411C17.3993 18.3504 17.4909 18.441 17.6009 18.5037C17.7109 18.5664 17.8354 18.5991 17.9621 18.5985C18.0887 18.5991 18.2133 18.5664 18.3233 18.5037C18.4333 18.441 18.5248 18.3504 18.5888 18.2411C18.7182 18.0133 18.7182 17.7387 18.5888 17.5161C18.5251 17.4062 18.4337 17.3148 18.3237 17.2512C18.2138 17.1876 18.0891 17.1539 17.9621 17.1536ZM12.0997 17.8786H13.3996H12.0997ZM27.2164 12.327C27.7342 9.81534 27.8481 7.89391 27.5115 6.49577C27.3148 5.66186 26.9523 4.98864 26.3981 4.49678C25.813 3.97881 25.0724 3.72519 24.2438 3.72519C22.8714 3.72519 21.4317 4.35175 19.8936 5.53764C19.267 6.01929 18.6145 6.60448 17.9413 7.28287C17.8842 7.21552 17.8272 7.1483 17.76 7.0913C15.8438 5.38743 14.2332 4.33106 12.8556 3.92193C12.0375 3.67853 11.271 3.65771 10.5719 3.89078C9.83132 4.13936 9.24082 4.65203 8.82665 5.37192C8.14309 6.55781 7.96173 8.12181 8.21548 10.0484C8.31915 10.8303 8.50039 11.6848 8.74897 12.6118C8.65218 12.6231 8.55675 12.644 8.46406 12.6741C6.0407 13.4817 4.32119 14.3413 3.28021 15.3305C2.66386 15.9157 2.26003 16.5734 2.10982 17.2933C1.95962 18.0597 2.10982 18.8261 2.52412 19.546C3.20769 20.7319 4.4661 21.6642 6.258 22.4048C6.97788 22.6999 7.79084 22.9691 8.7023 23.2125C8.65968 23.3087 8.6284 23.4095 8.6091 23.513C8.09126 26.0194 7.97737 27.946 8.31398 29.339C8.51073 30.1729 8.87836 30.8513 9.42736 31.338C10.0125 31.856 10.7531 32.1096 11.5817 32.1096C12.9541 32.1096 14.3937 31.483 15.9319 30.3023C16.5637 29.8103 17.2214 29.22 17.9049 28.5311C17.9784 28.6416 18.0654 28.7426 18.1639 28.8315C20.0801 30.5354 21.6906 31.5917 23.0682 32.0009C23.8865 32.2443 24.6529 32.2651 25.352 32.032C26.0926 31.7834 26.6831 31.2708 27.0972 30.5509C27.7809 29.365 27.9621 27.801 27.7084 25.8745C27.5997 25.0614 27.4131 24.1758 27.1439 23.2074C27.251 23.1972 27.3568 23.1764 27.4598 23.1453C29.8833 22.3374 31.6028 21.4778 32.6437 20.4885C33.26 19.9034 33.664 19.2457 33.8141 18.5258C33.9643 17.7594 33.8141 16.9929 33.3998 16.2731C32.7162 15.0871 31.4578 14.1549 29.6659 13.4144C28.9253 13.1089 28.0812 12.8292 27.1387 12.5858C27.1747 12.5028 27.2008 12.4161 27.2164 12.327Z" fill="#EF7834"/>
</g>
<defs>
<clipPath id="clip0_2028_458">
<rect width="31" height="31" fill="white" transform="translate(2.05279 2.05279) scale(1.02639)"/>
</clipPath>
</defs>
</svg>
