<svg width="29" height="12" viewBox="0 0 29 12" fill="none" xmlns="http://www.w3.org/2000/svg">
<path d="M14.5 11.824C11.3878 11.8992 8.28343 11.4797 5.30286 10.5811C3.926 10.1446 2.64183 9.45707 1.51525 8.55317C1.08536 8.24437 0.727353 7.84623 0.465804 7.38606C0.204256 6.9259 0.0453535 6.41459 0 5.88724C0 4.1752 1.88086 2.49734 5.0315 1.39949C8.09176 0.426692 11.2892 -0.0447753 14.5 0.0033441C17.6679 -0.0409172 20.8226 0.42203 23.8442 1.37463C25.1702 1.79736 26.4109 2.45169 27.5086 3.30727C27.9311 3.60166 28.2838 3.98538 28.5415 4.43123C28.7992 4.87708 28.9558 5.37415 29 5.88724C29 7.66659 26.8975 9.46977 23.5107 10.5904C20.5879 11.4598 17.549 11.8758 14.5 11.824ZM14.5 1.24206C11.4282 1.201 8.36943 1.6492 5.43854 2.56984C2.53854 3.58174 1.23871 4.96545 1.23871 5.88413C1.23871 6.84527 2.63589 8.35638 5.70368 9.40556C8.55508 10.2609 11.524 10.6591 14.5 10.5852C17.417 10.6374 20.3248 10.2427 23.1223 9.41488C26.3071 8.35949 27.7571 6.84631 27.7571 5.88724C27.7049 5.55811 27.5849 5.24341 27.4049 4.96299C27.2248 4.68257 26.9886 4.44254 26.7111 4.25806C25.729 3.49903 24.6207 2.91913 23.4372 2.54499C20.5465 1.63745 17.5294 1.1976 14.5 1.24206Z" fill="#00D8FF"/>
</svg>
