<svg width="36" height="36" viewBox="0 0 36 36" fill="none" xmlns="http://www.w3.org/2000/svg">
<g clip-path="url(#clip0_2028_488)">
<path d="M16.0692 2.49098C16.8904 2.02603 17.9373 2.02398 18.7379 2.49098L30.9971 9.4017C31.7639 9.83279 32.277 10.6878 32.2699 11.5715V25.4278C32.275 26.3485 31.7115 27.222 30.9027 27.6448L18.7091 34.5237C18.2921 34.7542 17.8209 34.8688 17.3446 34.8556C16.8683 34.8425 16.4042 34.702 16.0005 34.4488L12.3414 32.3344C12.092 32.1856 11.8118 32.0676 11.6352 31.8264C11.7912 31.617 12.0684 31.5903 12.2942 31.4979C12.8033 31.3358 13.2692 31.0874 13.7373 30.8246C13.8553 30.7425 14 30.7733 14.1129 30.8472L17.2332 32.6516C17.4559 32.7799 17.6817 32.6105 17.8726 32.5028L29.8455 25.746C29.9933 25.6742 30.0754 25.5182 30.0631 25.356V11.6331C30.0795 11.4483 29.9738 11.28 29.8065 11.2051L17.6437 4.35594C17.5736 4.30747 17.4905 4.28141 17.4053 4.28123C17.32 4.28104 17.2368 4.30674 17.1665 4.35492L5.02113 11.2184C4.85691 11.2933 4.744 11.4596 4.76453 11.6444V25.3673C4.75016 25.5294 4.83638 25.6824 4.98521 25.7522L8.23067 27.5843C8.84035 27.9127 9.58859 28.0975 10.2599 27.8563C10.5536 27.7456 10.8065 27.5477 10.9846 27.2892C11.1627 27.0308 11.2576 26.724 11.2565 26.4101L11.2596 12.7693C11.2452 12.5671 11.4361 12.3998 11.6321 12.4203H13.1923C13.3975 12.4152 13.5587 12.6328 13.531 12.836L13.5279 26.563C13.5289 27.7824 13.028 29.1085 11.9 29.7069C10.5103 30.4254 8.79211 30.2745 7.41879 29.5837L3.92905 27.6541C3.10793 27.2435 2.55676 26.3567 2.56189 25.4371V11.5807C2.5653 11.1304 2.68911 10.6891 2.92048 10.3027C3.15184 9.91636 3.48235 9.59888 3.87773 9.38323L16.0692 2.49098ZM19.6041 12.096C21.3767 11.9934 23.2745 12.0282 24.8696 12.9017C26.1043 13.5709 26.7889 14.975 26.8115 16.3483C26.7766 16.5331 26.5836 16.6357 26.4071 16.6224C25.8939 16.6214 25.3786 16.6296 24.8634 16.6193C24.6448 16.6275 24.5185 16.4264 24.4908 16.2334C24.343 15.5765 23.9848 14.9268 23.3669 14.6096C22.4185 14.1344 21.3182 14.158 20.2836 14.1683C19.5282 14.2093 18.7163 14.274 18.0769 14.7174C17.5842 15.0541 17.4364 15.7438 17.6119 16.2796C17.7761 16.6727 18.2308 16.7989 18.6014 16.9159C20.7383 17.4743 23.0015 17.4291 25.0984 18.1548C25.9657 18.4545 26.8146 19.0375 27.1122 19.9459C27.5002 21.1632 27.3309 22.6186 26.4656 23.5957C25.7635 24.4004 24.7413 24.8274 23.72 25.0758C22.3621 25.3786 20.9539 25.3858 19.5754 25.2503C18.2791 25.1025 16.9304 24.7617 15.9297 23.879C15.0736 23.1359 14.6569 21.9781 14.698 20.8614C14.7082 20.6725 14.8961 20.5412 15.0777 20.5566H16.6173C16.8247 20.5422 16.9766 20.7208 16.9868 20.9158C17.0823 21.5316 17.3173 22.1988 17.8634 22.558C18.9165 23.2375 20.2374 23.1903 21.4424 23.2098C22.4411 23.1657 23.5619 23.1523 24.3779 22.4913C24.809 22.1146 24.9352 21.4855 24.8193 20.9435C24.693 20.4857 24.2034 20.2733 23.7929 20.1224C21.6836 19.4552 19.3948 19.6975 17.3061 18.942C16.4582 18.6423 15.6382 18.0758 15.3128 17.2044C14.8581 15.9727 15.0665 14.4464 16.0241 13.5022C16.9478 12.563 18.3027 12.2007 19.5857 12.0714L19.6041 12.096Z" fill="#8CC84B"/>
</g>
<defs>
<clipPath id="clip0_2028_488">
<rect width="33" height="33" fill="white" transform="translate(1.02639 1.02639) scale(1.02639)"/>
</clipPath>
</defs>
</svg>
