<svg width="32" height="32" viewBox="0 0 32 32" fill="none" xmlns="http://www.w3.org/2000/svg">
<g clip-path="url(#clip0_2028_142)">
<g clip-path="url(#clip1_2028_142)">
<path d="M15.4946 0.741455C15.2738 0.741455 15.1066 0.743083 15.0457 0.749847C14.9811 0.756485 14.7753 0.77615 14.5903 0.79093C10.3207 1.17583 6.32148 3.47922 3.7885 7.01949C2.37803 8.98808 1.47596 11.2208 1.13527 13.5861C1.01478 14.4115 1 14.6554 1 15.7748C1 16.8941 1.01503 17.138 1.13527 17.9637C1.95192 23.6076 5.96889 28.3495 11.4169 30.1063C12.3925 30.4208 13.4209 30.6352 14.5904 30.7645C15.0458 30.8146 17.0145 30.8146 17.47 30.7645C19.4887 30.5412 21.199 30.0418 22.8855 29.1809C23.1441 29.0487 23.1941 29.0135 23.1589 28.9839C23.1354 28.9665 22.0333 27.4886 20.7111 25.7023L18.3075 22.4557L15.2956 17.9989C13.6384 15.5484 12.2749 13.5449 12.2631 13.5449C12.2513 13.5416 12.2397 15.5223 12.2336 17.94C12.2253 22.1738 12.222 22.3441 12.169 22.4441C12.0926 22.5881 12.0337 22.6467 11.9105 22.7114C11.8166 22.7582 11.7341 22.7671 11.2905 22.7671H10.782L10.647 22.6819C10.5632 22.6295 10.4952 22.5554 10.4501 22.4675L10.3883 22.3352L10.3949 16.4446L10.4033 10.551L10.4943 10.4364C10.5414 10.3746 10.6413 10.2955 10.7117 10.2573C10.8322 10.1984 10.8793 10.1925 11.3876 10.1925C11.9872 10.1925 12.087 10.2159 12.2427 10.3863C12.2869 10.4335 13.9177 12.8897 15.8687 15.8483C17.8442 18.8429 19.8208 21.8366 21.7987 24.8296L24.1787 28.4347L24.299 28.3554C25.3659 27.662 26.494 26.6747 27.3873 25.6465C29.2885 23.4635 30.514 20.8018 30.9253 17.9636C31.0457 17.138 31.0604 16.8939 31.0604 15.7748C31.0604 14.6554 31.0453 14.4115 30.9253 13.5859C30.1084 7.94197 26.0916 3.20004 20.6437 1.44324C19.6828 1.13174 18.6602 0.917184 17.5143 0.787924C17.3026 0.765879 16.1569 0.741956 15.4946 0.741455ZM20.5905 9.78093C21.0255 9.78093 21.1018 9.78757 21.1988 9.8398C21.34 9.91019 21.4544 10.0455 21.4957 10.1864C21.519 10.2628 21.525 11.8964 21.519 15.5777L21.5106 20.8603L20.5792 19.4324L19.6447 18.0045V14.1643C19.6447 11.6818 19.6564 10.2861 19.674 10.2186C19.721 10.0541 19.8238 9.92472 19.965 9.84844C20.0854 9.78657 20.1291 9.78093 20.5905 9.78093Z" fill="white"/>
</g>
</g>
<defs>
<clipPath id="clip0_2028_142">
<rect width="31" height="31" fill="white" transform="translate(1 0.463013)"/>
</clipPath>
<clipPath id="clip1_2028_142">
<rect width="30.0606" height="30.0606" fill="white" transform="translate(1 0.741455)"/>
</clipPath>
</defs>
</svg>
