<svg width="32" height="32" viewBox="0 0 32 32" fill="none" xmlns="http://www.w3.org/2000/svg">
<g clip-path="url(#clip0_2028_174)">
<g clip-path="url(#clip1_2028_174)">
<path d="M21.9621 22.1222C23.0519 22.0095 23.8787 21.0699 23.8411 19.9425C23.8035 18.815 22.864 17.9131 21.7366 17.9131H21.6615C20.4965 17.9507 19.5946 18.9278 19.6322 20.0928C19.6697 20.6565 19.8952 21.1451 20.2334 21.4833C18.9557 24.0013 17.0016 25.8427 14.0703 27.3836C12.0786 28.4358 10.0117 28.8117 7.94481 28.5486C6.25371 28.3231 4.93842 27.5715 4.11166 26.3313C2.9091 24.4898 2.79636 22.498 3.81102 20.5062C4.52504 19.0781 5.65244 18.0258 6.36645 17.4997C6.21614 17.0111 5.99066 16.1844 5.87792 15.5831C0.428832 19.5291 0.99253 24.8656 2.64605 27.3836C3.88618 29.2626 6.40403 30.4277 9.18495 30.4277C9.93654 30.4277 10.6881 30.3525 11.4397 30.1646C16.25 29.2251 19.8952 26.3689 21.9621 22.1222ZM28.5762 17.4621C25.7201 14.1174 21.5112 12.2759 16.7009 12.2759H16.0996C15.7614 11.5994 15.0474 11.1485 14.2582 11.1485H14.1831C13.0181 11.186 12.1162 12.1632 12.1538 13.3282C12.1913 14.4556 13.1308 15.3576 14.2582 15.3576H14.3334C15.1601 15.32 15.8742 14.7938 16.1748 14.0798H16.8512C19.7073 14.0798 22.4131 14.9066 24.8558 16.5226C26.7348 17.7628 28.0876 19.3788 28.8392 21.333C29.4781 22.9114 29.4405 24.4522 28.7641 25.7676C27.7118 27.7594 25.9456 28.8492 23.6156 28.8492C22.1124 28.8492 20.6844 28.3983 19.9328 28.06C19.5194 28.4358 18.7678 29.0371 18.2417 29.413C19.8576 30.1646 21.5112 30.578 23.0895 30.578C26.6972 30.578 29.3653 28.5862 30.38 26.5944C31.4698 24.4146 31.3947 20.6565 28.5762 17.4621ZM9.48559 22.7611C9.52316 23.8885 10.4627 24.7905 11.5901 24.7905H11.6652C12.8302 24.7529 13.7321 23.7758 13.6945 22.6108C13.657 21.4833 12.7175 20.5814 11.5901 20.5814H11.5149C11.4397 20.5814 11.327 20.5814 11.2518 20.6189C9.71106 18.0634 9.07221 15.2824 9.29769 12.2759C9.44801 10.021 10.1996 8.0668 11.5149 6.45081C12.6047 5.0603 14.7092 4.38384 16.1372 4.34626C20.1207 4.2711 21.8118 9.23182 21.9245 11.2236C22.4131 11.3364 23.2398 11.5994 23.8035 11.7873C23.3526 5.69918 19.5946 2.54236 15.9869 2.54236C12.6047 2.54236 9.48559 4.98514 8.24545 8.59294C6.51677 13.4033 7.64417 18.0258 9.74864 21.6712C9.56075 21.9343 9.44801 22.3477 9.48559 22.7611Z" fill="#764ABC"/>
</g>
</g>
<defs>
<clipPath id="clip0_2028_174">
<rect width="29.963" height="29.963" fill="white" transform="translate(1.5 1.5)"/>
</clipPath>
<clipPath id="clip1_2028_174">
<rect width="29.5314" height="28.1471" fill="white" transform="translate(1.5 2.54236)"/>
</clipPath>
</defs>
</svg>
