<svg width="36" height="36" viewBox="0 0 36 36" fill="none" xmlns="http://www.w3.org/2000/svg">
<g clip-path="url(#clip0_2028_425)">
<path d="M17.9619 20.5805C19.4234 20.5805 20.6081 19.3958 20.6081 17.9343C20.6081 16.4729 19.4234 15.2882 17.9619 15.2882C16.5005 15.2882 15.3157 16.4729 15.3157 17.9343C15.3157 19.3958 16.5005 20.5805 17.9619 20.5805Z" fill="#00D8FF"/>
<path d="M17.9619 24.001C14.7814 24.078 11.6088 23.6492 8.5627 22.7309C7.15559 22.2848 5.84321 21.5822 4.69188 20.6584C4.25254 20.3428 3.88667 19.9359 3.61937 19.4656C3.35208 18.9954 3.18968 18.4728 3.14333 17.9339C3.14333 16.1842 5.06552 14.4695 8.28538 13.3475C11.4129 12.3534 14.6806 11.8715 17.9619 11.9207C21.1995 11.8755 24.4234 12.3486 27.5114 13.3221C28.8666 13.7542 30.1345 14.4229 31.2563 15.2972C31.6881 15.5981 32.0485 15.9902 32.3119 16.4459C32.5753 16.9015 32.7353 17.4095 32.7805 17.9339C32.7805 19.7523 30.6318 21.5951 27.1706 22.7404C24.1835 23.6289 21.0779 24.054 17.9619 24.001ZM17.9619 13.1867C14.8226 13.1447 11.6966 13.6027 8.70136 14.5436C5.73764 15.5777 4.40926 16.9919 4.40926 17.9307C4.40926 18.913 5.83714 20.4573 8.97233 21.5295C11.8864 22.4037 14.9205 22.8106 17.9619 22.7351C20.943 22.7884 23.9147 22.3851 26.7737 21.539C30.0285 20.4605 31.5103 18.914 31.5103 17.9339C31.4569 17.5975 31.3343 17.2759 31.1503 16.9893C30.9663 16.7028 30.7249 16.4575 30.4413 16.2689C29.4376 15.4932 28.305 14.9006 27.0954 14.5182C24.1413 13.5907 21.0579 13.1412 17.9619 13.1867Z" fill="#00D8FF"/>
<path d="M11.9498 31.1321C11.456 31.1434 10.968 31.0236 10.5357 30.7849C9.01992 29.9106 8.49492 27.3893 9.13106 24.0393C9.83245 20.8333 11.0477 17.7618 12.7299 14.9439C14.3078 12.1168 16.3278 9.56039 18.7134 7.37156C19.7646 6.41334 20.9773 5.64895 22.2952 5.11385C22.7719 4.89045 23.2919 4.77464 23.8184 4.77464C24.3448 4.77464 24.8648 4.89045 25.3415 5.11385C26.9176 6.02201 27.4394 8.80367 26.7038 12.3739C25.9807 15.4059 24.797 18.3092 23.1939 20.9824C21.6715 23.7761 19.7151 26.3103 17.3977 28.4902C16.3083 29.4859 15.044 30.2715 13.6687 30.8071C13.1181 31.0115 12.537 31.1214 11.9498 31.1321ZM13.8264 15.5726C12.2219 18.271 11.0571 21.2076 10.3758 24.2722C9.79049 27.3576 10.3525 29.2131 11.1697 29.6852C12.0165 30.1752 14.072 29.7106 16.5679 27.5301C18.7801 25.4417 20.6475 23.016 22.1005 20.3431C23.6363 17.7875 24.7717 15.0117 25.4675 12.1124C26.1597 8.75181 25.5617 6.69414 24.7128 6.20513C24.3946 6.08322 24.0546 6.02865 23.7143 6.04487C23.374 6.06108 23.0407 6.14773 22.7356 6.29933C21.5625 6.78342 20.4839 7.47067 19.5496 8.32948C17.2703 10.4261 15.3408 12.8734 13.8338 15.5789L13.8264 15.5726Z" fill="#00D8FF"/>
<path d="M23.9709 31.1457C22.5366 31.1457 20.715 30.2778 18.8182 28.6467C16.3908 26.438 14.3366 23.8512 12.7352 20.9866C11.0742 18.2074 9.86852 15.1804 9.16393 12.0203C8.85836 10.6299 8.80173 9.19646 8.99669 7.78638C9.04176 7.26329 9.20104 6.75646 9.4633 6.30163C9.72555 5.84679 10.0844 5.45503 10.5145 5.15397C12.0885 4.24262 14.759 5.17937 17.4846 7.59903C19.7503 9.73945 21.6744 12.2147 23.1897 14.9385C24.8497 17.6527 26.068 20.6135 26.7991 23.71C27.1178 25.1513 27.167 26.6392 26.9441 28.0984C26.8911 28.6365 26.7223 29.1568 26.4493 29.6236C26.1764 30.0904 25.8057 30.4927 25.3627 30.8028C24.9374 31.0385 24.457 31.1569 23.9709 31.1457ZM13.8307 20.3494C15.367 23.087 17.3293 25.5627 19.6438 27.6835C22.0243 29.7316 23.9126 30.172 24.7245 29.6946C25.5713 29.2024 26.1958 27.1934 25.5522 23.9429C24.8471 20.9865 23.6786 18.1603 22.09 15.5693C20.6439 12.9624 18.8074 10.5922 16.6441 8.54107C14.0784 6.26324 11.9974 5.75412 11.1496 6.24525C10.8854 6.45999 10.6685 6.72719 10.5127 7.02998C10.357 7.33277 10.2657 7.66457 10.2446 8.00442C10.0763 9.26198 10.1312 10.5394 10.4066 11.7779C11.0843 14.7999 12.2406 17.6943 13.8318 20.3515L13.8307 20.3494Z" fill="#00D8FF"/>
</g>
<defs>
<clipPath id="clip0_2028_425">
<rect width="33" height="33" fill="white" transform="translate(1.02639 1.02639) scale(1.02639)"/>
</clipPath>
</defs>
</svg>
