<svg width="36" height="36" viewBox="0 0 36 36" fill="none" xmlns="http://www.w3.org/2000/svg">
<g clip-path="url(#clip0_2028_507)">
<path d="M23.0272 11.3826L22.9326 11.8759C22.7862 12.8109 22.8392 13.0783 23.2405 13.4253L23.6278 13.7458L23.2266 15.535C22.9869 16.6024 22.6929 17.497 22.5061 17.791C22.3459 18.0446 22.1592 18.4181 22.1188 18.6187C22.0519 18.8584 21.8248 19.0994 21.4778 19.3127C21.1712 19.4868 20.5694 19.9536 20.1429 20.3284C19.8022 20.635 19.5675 20.823 19.4401 20.9037L19.0237 21.233C18.89 21.4475 18.8143 21.6204 18.7852 21.7516C18.7562 21.8866 18.7726 21.9762 18.8155 22.0418C18.8572 22.1049 18.9291 22.1491 19.0275 22.1768C19.144 22.2041 19.2639 22.2139 19.3833 22.2058C19.6534 22.1874 19.9207 22.14 20.1807 22.0645C20.2691 22.0406 20.3385 22.0178 20.399 21.9977C20.4924 21.8828 20.7081 21.6658 21.0905 21.2885C22.1049 20.288 22.4923 19.7404 22.0923 19.888C21.9447 19.941 22.0115 19.8073 22.2651 19.5398C22.8001 19.0187 23.1067 18.2313 23.7477 15.7621C24.2549 13.8127 24.2549 13.7849 24.6284 13.7849C24.8038 13.7849 25.2996 13.8152 25.2996 13.8152V11.3826H24.1616H23.0272ZM27.8711 15.376C27.7903 15.376 27.6566 15.4971 27.5771 15.6309C27.4307 15.8706 27.6036 16.017 29.8066 17.3923C31.115 18.2212 32.1699 18.9278 32.1434 18.9821C32.1169 19.0212 31.0482 19.7164 29.7675 20.5176C27.4434 21.9585 27.4307 21.9724 27.644 22.2664C27.9115 22.6134 27.644 22.7333 30.6608 20.8507L32.8512 19.4489V18.3941L30.4072 16.885C29.0862 16.0573 27.938 15.3899 27.8711 15.376ZM7.57586 15.5236C7.50899 15.5236 6.3608 16.205 5.03975 17.0188L2.56924 18.5278V19.5827L5.02587 21.1182C6.38856 21.9585 7.53675 22.6538 7.58974 22.6538C7.64274 22.6538 7.74999 22.5326 7.85723 22.3863C8.01748 22.1327 7.88247 22.0254 5.62646 20.5971C3.4777 19.2483 3.25059 19.0616 3.46509 18.9152C3.59883 18.8218 4.61328 18.1935 5.70848 17.5134C8.20548 15.9778 8.07173 16.0838 7.87111 15.7634C7.79162 15.6309 7.65662 15.511 7.57713 15.5236H7.57586ZM18.5329 15.5526C18.1645 15.5501 17.3721 16.1116 15 18.0484C14.8978 18.2919 14.889 18.4597 14.9356 18.5682C14.9659 18.6427 15.0214 18.6944 15.0984 18.7322C15.1741 18.7701 15.2725 18.7928 15.381 18.8016C15.5968 18.8206 15.8517 18.7865 16.0573 18.7461L16.1961 18.7146C16.2436 18.6509 16.306 18.5998 16.3778 18.5657C16.5242 18.4849 17.1387 17.9247 17.7531 17.3241C18.8344 16.2289 19.0881 15.7343 18.6477 15.5741C18.6116 15.5597 18.5718 15.5524 18.5329 15.5526ZM21.3037 16.3135C20.9794 16.3223 20.3952 16.6983 19.3947 17.497C18.8925 17.9045 18.5745 18.1241 18.4042 18.1695L17.743 18.6919C17.4945 19.1461 17.4579 19.4275 17.5235 19.5827C17.5399 19.6209 17.5638 19.6556 17.5936 19.6846C17.6235 19.7136 17.6589 19.7365 17.6976 19.7517C17.794 19.7898 17.8968 19.8091 18.0004 19.8085C18.2481 19.8059 18.4942 19.7698 18.7322 19.7013C18.8563 19.668 18.9788 19.6293 19.0994 19.5852L19.136 19.57L19.2029 19.5347C19.3291 19.372 19.6193 19.0653 19.9826 18.7121C21.1308 17.6042 21.7175 16.8169 21.5977 16.5229C21.5434 16.3803 21.4501 16.3084 21.3037 16.3135ZM18.2452 17.6762C18.1518 17.6863 17.9424 17.8478 17.5651 18.1783C17.0201 18.6603 16.4258 18.9379 16.2201 18.8143C16.1723 18.8251 16.1244 18.8352 16.0763 18.8445C15.8668 18.8862 15.6056 18.9202 15.3722 18.9013C15.2622 18.8947 15.1544 18.8677 15.0542 18.8218C14.9598 18.7786 14.8844 18.7023 14.8423 18.6073C14.7956 18.4938 14.7956 18.3525 14.8486 18.172L14.0284 18.8458L12.1724 20.3814V22.8708L18.254 18.0799C18.2529 18.0275 18.2597 17.9751 18.2742 17.9247C18.3209 17.7557 18.3184 17.6699 18.2452 17.6774V17.6762ZM20.8621 18.4824C20.77 18.4824 20.616 18.6124 20.37 18.8736C20.0356 19.2306 19.5095 19.5764 19.2306 19.647L19.1877 19.6697C19.142 19.6886 19.0957 19.7063 19.0489 19.7227C18.9732 19.748 18.8748 19.7782 18.7613 19.8085C18.5342 19.8703 18.2515 19.9271 17.9992 19.9208C17.8802 19.9207 17.7624 19.8975 17.6522 19.8527C17.5483 19.8099 17.4651 19.7285 17.42 19.6256C17.3468 19.4502 17.3759 19.2041 17.5361 18.8546L12.1712 23.0802V24.6006H14.5281L19.5271 20.6741C19.6571 20.5302 19.8527 20.3334 20.1164 20.0874C20.823 19.4325 20.9832 19.2067 20.9832 18.8723C20.9832 18.6124 20.9542 18.4812 20.8621 18.4812V18.4824ZM22.0519 20.9428L21.6242 21.3693C21.3844 21.5964 20.9567 21.8765 20.664 21.9964L20.6059 22.0216L20.6022 22.0279L20.5895 22.0406C20.5782 22.0494 20.5731 22.0506 20.5643 22.0544C20.4475 22.0987 20.3287 22.1378 20.2085 22.1718C19.9412 22.2496 19.6662 22.2982 19.3884 22.3169C19.257 22.3253 19.1251 22.3138 18.9972 22.2828C18.8862 22.2584 18.7882 22.1936 18.7222 22.1011C18.6616 22.0077 18.6439 21.8828 18.678 21.7289C18.7051 21.6193 18.7453 21.5134 18.7979 21.4135L14.764 24.6006H20.129L20.77 23.8663C21.6507 22.8392 22.0519 22.1049 22.0519 21.4765V20.9428Z" fill="#BA6AA0"/>
</g>
<defs>
<clipPath id="clip0_2028_507">
<rect width="29.5032" height="29.5032" fill="white" transform="translate(2.56924 2.85115) scale(1.02639)"/>
</clipPath>
</defs>
</svg>
