<svg width="36" height="36" viewBox="0 0 36 36" fill="none" xmlns="http://www.w3.org/2000/svg">
<g clip-path="url(#clip0_2028_469)">
<path d="M2.56924 2.92733H33.3611V33.7192H2.56924V2.92733ZM30.8387 26.3753C30.6142 24.9704 29.6994 23.7901 26.9859 22.6893C26.0416 22.2466 24.9921 21.9387 24.6804 21.2267C24.5636 20.8033 24.5456 20.5723 24.6213 20.3222C24.8138 19.4933 25.7953 19.2444 26.5651 19.4754C27.0654 19.6293 27.5273 20.0142 27.8173 20.6301C29.1439 19.7628 29.1439 19.7628 30.0689 19.1867C29.7225 18.6479 29.5506 18.4156 29.3171 18.186C28.5088 17.2815 27.4324 16.8196 25.6811 16.8594L24.7766 16.9735C23.9093 17.1852 23.083 17.6471 22.5827 18.263C21.12 19.9193 21.5422 22.806 23.3127 23.9992C25.064 25.3079 27.6248 25.5953 27.952 26.8282C28.2599 28.3293 26.8358 28.8104 25.4296 28.6372C24.3891 28.4063 23.8131 27.8854 23.178 26.9232L20.8301 28.2716C21.0995 28.8874 21.4074 29.1556 21.8693 29.6944C24.1017 31.9474 29.6827 31.8319 30.6848 28.4063C30.722 28.2908 30.9927 27.5018 30.7797 26.2894L30.8387 26.3753ZM19.3136 17.08H16.4294C16.4294 19.5665 16.4179 22.0375 16.4179 24.5278C16.4179 26.1085 16.4987 27.5595 16.2408 28.006C15.8174 28.89 14.7269 28.7771 14.2317 28.6218C13.7236 28.3704 13.4657 28.024 13.1668 27.5249C13.0859 27.3902 13.0256 27.2734 13.0038 27.2734L10.6624 28.7168C11.0537 29.5251 11.6246 30.2205 12.3611 30.6631C13.458 31.3174 14.9322 31.5291 16.4756 31.1827C17.4802 30.8927 18.3462 30.2962 18.7991 29.3724C19.4534 28.1792 19.3149 26.7166 19.3085 25.0795C19.3239 22.4442 19.3085 19.8077 19.3085 17.1519L19.3136 17.08Z" fill="#F5DE19"/>
</g>
<defs>
<clipPath id="clip0_2028_469">
<rect width="30" height="30" fill="white" transform="translate(2.56924 2.92733) scale(1.02639)"/>
</clipPath>
</defs>
</svg>
