<svg width="36" height="36" viewBox="0 0 36 36" fill="none" xmlns="http://www.w3.org/2000/svg">
<g clip-path="url(#clip0_2028_464)">
<path d="M17.0008 24.467C16.969 24.5242 16.9849 24.4988 17.0008 24.467V24.467ZM30.1856 19.8627C29.1212 19.8624 28.0709 20.1068 27.116 20.5772C26.8038 19.9474 26.4809 19.397 26.428 18.9842C26.3645 18.5026 26.2957 18.2168 26.3698 17.6452C26.4439 17.0736 26.7773 16.2639 26.772 16.2057C26.7667 16.1475 26.6979 15.8564 26.0152 15.8511C25.3325 15.8458 24.7451 15.9834 24.6768 16.1633C24.5562 16.4922 24.4624 16.8302 24.3963 17.1742C24.2746 17.7934 23.0314 20.0056 22.3275 21.1593C22.0946 20.7095 21.8988 20.3126 21.8565 19.995C21.793 19.5134 21.7242 19.2276 21.7983 18.656C21.8724 18.0845 22.2058 17.2747 22.2005 17.2165C22.1952 17.1583 22.1264 16.8672 21.4442 16.8619C20.762 16.8566 20.174 16.9942 20.1052 17.1742C20.0364 17.3541 19.9624 17.7775 19.8248 18.185C19.6872 18.5925 18.0312 22.276 17.5977 23.2339C17.3755 23.7208 17.1849 24.1125 17.0473 24.3771C17.0262 24.4194 17.0103 24.4459 16.9997 24.467C17.0156 24.4406 17.0262 24.4141 17.0262 24.4247C16.9097 24.6523 16.8409 24.7793 16.8409 24.7793V24.7846C16.751 24.9539 16.6504 25.1074 16.6028 25.1074C16.571 25.1074 16.5022 24.6629 16.6186 24.0542C16.8674 22.7735 17.4548 20.7836 17.4495 20.7148C17.4443 20.6777 17.5607 20.3337 17.0632 20.1485C16.5816 19.9738 16.407 20.2649 16.3646 20.2649C16.3223 20.2649 16.2905 20.3708 16.2905 20.3708C16.2905 20.3708 16.8251 18.1268 15.2643 18.1268C14.2905 18.1268 12.9357 19.1959 12.2699 20.1644C11.8518 20.3919 10.9468 20.8841 9.99422 21.4081C9.62904 21.6092 9.25329 21.8156 8.8987 22.0114C8.87224 21.9849 8.85107 21.9585 8.82461 21.932C6.93048 19.9103 3.43329 18.4814 3.58148 15.7664C3.6344 14.7768 3.9784 12.1782 10.3065 9.02397C15.493 6.4413 19.6395 7.15048 20.3535 8.7276C21.3802 10.9768 18.1365 15.1631 12.7505 15.7664C10.6976 15.994 9.61846 15.2001 9.34855 14.9038C9.06806 14.5915 9.02572 14.5756 8.91987 14.6339C8.74522 14.7291 8.85636 15.0043 8.91987 15.1684C9.07864 15.5865 9.74018 16.3274 10.8669 16.6979C11.8566 17.0207 14.2636 17.2006 17.1738 16.0734C20.4434 14.8138 22.9885 11.305 22.2423 8.36772C21.4823 5.38283 16.5329 4.40375 11.8529 6.06555C9.06435 7.05521 6.04877 8.61117 3.87944 10.6381C1.30259 13.0514 0.890318 15.1525 1.05967 16.031C1.66247 19.1482 5.9588 21.1805 7.67829 22.6835C7.59361 22.7312 7.51422 22.7735 7.44013 22.8158C6.57801 23.2445 3.30257 24.9592 2.48279 26.7692C1.55663 28.8226 2.63626 30.2939 3.34491 30.495C5.55658 31.1089 7.82118 30.0028 9.03789 28.1876C10.2546 26.3723 10.1069 24.0013 9.54595 22.9217C9.54066 22.9058 9.53008 22.8952 9.52479 22.8793C9.74706 22.747 9.97463 22.6147 10.2022 22.4824C10.6409 22.2231 11.0696 21.9849 11.4454 21.7785C11.2337 22.3501 11.0802 23.0381 11.0008 24.0331C10.9056 25.1974 11.3872 26.7057 12.0117 27.2985C12.2869 27.5578 12.6198 27.5631 12.8262 27.5631C13.5565 27.5631 13.8846 26.9597 14.2493 26.24C14.6991 25.3615 15.096 24.34 15.096 24.34C15.096 24.34 14.5986 27.1026 15.9587 27.1026C16.4556 27.1026 16.9531 26.4623 17.1759 26.1341V26.1394C17.1759 26.1394 17.1865 26.1183 17.213 26.0759C17.2659 25.9965 17.2924 25.9489 17.2924 25.9489V25.933C17.4935 25.589 17.9327 24.8005 18.5938 23.4985C19.4511 21.8156 20.2709 19.7145 20.2709 19.7145C20.3501 20.1764 20.4597 20.6325 20.599 21.0799C20.7472 21.5827 21.0595 22.1331 21.3082 22.6676C21.1071 22.9428 20.9854 23.1016 20.9854 23.1016C20.9858 23.1057 20.9876 23.1095 20.9907 23.1122C20.8319 23.3239 20.6519 23.5515 20.4667 23.7737C19.7898 24.5782 18.9849 25.4991 18.879 25.7637C18.752 26.0759 18.7837 26.3088 19.0272 26.4887C19.2071 26.6263 19.5247 26.6475 19.8576 26.621C20.4662 26.5787 20.8949 26.4305 21.1013 26.3352C21.4818 26.1988 21.8414 26.01 22.1698 25.7743C22.8313 25.2874 23.2336 24.5888 23.1965 23.6679C23.1753 23.1598 23.0113 22.6518 22.8102 22.1755C22.8684 22.0908 22.9319 22.0008 22.9901 21.9108C24.0375 20.3814 24.8472 18.7026 24.8472 18.7026C24.9264 19.1645 25.036 19.6206 25.1753 20.068C25.3023 20.4967 25.5505 20.9677 25.7781 21.4282C24.7943 22.2273 24.1856 23.1535 23.974 23.7621C23.5823 24.8894 23.8893 25.3974 24.4661 25.5139C24.7255 25.5668 25.0959 25.4451 25.3711 25.3286C25.7798 25.1925 26.1652 24.9944 26.5138 24.7412C27.1753 24.2543 27.8151 23.5716 27.7728 22.6454C27.7569 22.2273 27.6405 21.8092 27.487 21.407C28.3179 21.0577 29.397 20.8672 30.773 21.026C33.7198 21.37 34.2967 23.2117 34.1855 23.9791C34.0744 24.7465 33.4552 25.1752 33.2488 25.3022C33.0424 25.4292 32.9789 25.4768 32.9948 25.5721C33.0212 25.7097 33.1165 25.7044 33.2911 25.6726C33.5346 25.6303 34.836 25.0481 34.8942 23.6245C34.9789 21.8251 33.2488 19.8458 30.184 19.8616L30.1856 19.8627ZM7.47188 27.5207C6.49862 28.5845 5.13319 28.9867 4.54627 28.648C3.91648 28.2818 4.16522 26.7163 5.36606 25.5827C6.0964 24.8947 7.03791 24.2596 7.66241 23.868C7.8053 23.7833 8.0117 23.6563 8.26573 23.5028C8.30807 23.4763 8.32924 23.4657 8.32924 23.4657C8.37687 23.434 8.4298 23.4075 8.48272 23.3758C8.92146 24.9846 8.4986 26.403 7.47188 27.5197V27.5207ZM14.5827 22.6835C14.244 23.5144 13.53 25.6314 13.0961 25.5202C12.7256 25.425 12.498 23.8108 13.022 22.2231C13.2866 21.4239 13.8476 20.4713 14.181 20.1009C14.715 19.5028 15.3024 19.3123 15.44 19.5505C15.6253 19.8627 14.7944 22.1649 14.5827 22.6835ZM20.4572 25.4885C20.3143 25.5626 20.182 25.6102 20.1185 25.5731C20.0708 25.5467 20.1767 25.4461 20.1767 25.4461C20.1767 25.4461 20.9123 24.6576 21.2034 24.2977C21.3728 24.086 21.5686 23.8373 21.7797 23.5621C21.7797 23.5885 21.785 23.615 21.785 23.6467C21.7782 24.5941 20.8684 25.2344 20.4556 25.4885H20.4572ZM24.9864 24.4565C24.8805 24.3824 24.8964 24.1336 25.251 23.3609C25.3886 23.0593 25.7056 22.5512 26.2565 22.0643C26.3189 22.2486 26.3528 22.4414 26.3571 22.6359C26.3518 23.8267 25.4997 24.2712 24.9869 24.4565H24.9864Z" fill="#CD6799"/>
</g>
<defs>
<clipPath id="clip0_2028_464">
<rect width="33" height="33" fill="white" transform="translate(1.02639 1.02639) scale(1.02639)"/>
</clipPath>
</defs>
</svg>
