<svg width="32" height="32" viewBox="0 0 32 32" fill="none" xmlns="http://www.w3.org/2000/svg">
<path fill-rule="evenodd" clip-rule="evenodd" d="M16.5954 31.2561L15.7756 30.9759C15.7756 30.9759 15.8758 26.797 14.3759 26.4971C13.3763 25.3372 14.5362 -22.6921 18.1353 26.337C18.1353 26.337 16.8955 26.9567 16.6755 28.0167C16.4354 29.0565 16.5954 31.2561 16.5954 31.2561Z" fill="#A6A385"/>
<path fill-rule="evenodd" clip-rule="evenodd" d="M17.0354 27.2171C17.0354 27.2171 24.214 22.498 22.5341 12.68C20.9146 5.5419 17.0954 3.20241 16.6755 2.30253C16.2157 1.66268 15.7756 0.543091 15.7756 0.543091L16.0757 20.3984C16.0757 20.4185 15.4558 26.4771 17.0356 27.2173" fill="#499D4A"/>
<path fill-rule="evenodd" clip-rule="evenodd" d="M15.3559 27.477C15.3559 27.477 8.61714 22.8779 9.01713 14.7799C9.39697 6.68174 14.1559 2.70262 15.0757 1.98281C15.6757 1.34295 15.6956 1.10287 15.7357 0.463013C16.1557 1.36289 16.0757 13.9202 16.1355 15.3997C16.3154 21.0983 15.8157 26.3975 15.3559 27.477Z" fill="#58AA50"/>
</svg>
