<svg width="18" height="26" viewBox="0 0 18 26" fill="none" xmlns="http://www.w3.org/2000/svg">
<path d="M14.8956 25.9993C13.4796 25.9993 11.6812 25.1424 9.80855 23.5321C7.41205 21.3515 5.384 18.7976 3.80295 15.9694C2.16307 13.2257 0.972749 10.2372 0.277126 7.11727C-0.0245552 5.74466 -0.080457 4.32942 0.112017 2.93729C0.156515 2.42085 0.313767 1.92047 0.572686 1.47143C0.831605 1.02238 1.18588 0.635608 1.61054 0.338377C3.16445 -0.561365 5.80098 0.363457 8.49185 2.75232C10.7288 4.8655 12.6284 7.30924 14.1244 9.99833C15.7633 12.6781 16.9661 15.6011 17.6878 18.6582C18.0025 20.0812 18.051 21.5501 17.831 22.9908C17.7786 23.5221 17.612 24.0357 17.3425 24.4966C17.0731 24.9575 16.7071 25.3546 16.2698 25.6608C15.8498 25.8935 15.3756 26.0103 14.8956 25.9993ZM4.88452 15.3404C6.40126 18.0432 8.33854 20.4873 10.6236 22.5811C12.9738 24.6032 14.8381 25.0379 15.6396 24.5666C16.4756 24.0807 17.0922 22.0973 16.4568 18.8881C15.7607 15.9694 14.6071 13.1792 13.0386 10.6212C11.611 8.04745 9.79783 5.70743 7.66212 3.68237C5.12905 1.43353 3.07458 0.930891 2.23754 1.41577C1.97665 1.62778 1.76256 1.89158 1.60877 2.19052C1.45499 2.48945 1.36486 2.81703 1.34407 3.15255C1.17792 4.3941 1.23204 5.65522 1.50395 6.87797C2.17307 9.86158 3.31466 12.7191 4.88556 15.3424L4.88452 15.3404Z" fill="#00D8FF"/>
</svg>
